<?xml version="1.0" encoding="utf-8"?>
<svg xmlns="http://www.w3.org/2000/svg" xmlns:xlink="http://www.w3.org/1999/xlink" width="600" height="400" viewBox="0 0 2400 1600">
<defs>
  <clipPath id="clip270">
    <rect x="0" y="0" width="2400" height="1600"/>
  </clipPath>
</defs>
<path clip-path="url(#clip270)" d="
M0 1600 L2400 1600 L2400 0 L0 0  Z
  " fill="#ffffff" fill-rule="evenodd" fill-opacity="1"/>
<defs>
  <clipPath id="clip271">
    <rect x="480" y="0" width="1681" height="1600"/>
  </clipPath>
</defs>
<path clip-path="url(#clip270)" d="
M149.191 1486.45 L2352.76 1486.45 L2352.76 47.2441 L149.191 47.2441  Z
  " fill="#ffffff" fill-rule="evenodd" fill-opacity="1"/>
<defs>
  <clipPath id="clip272">
    <rect x="149" y="47" width="2205" height="1440"/>
  </clipPath>
</defs>
<polyline clip-path="url(#clip272)" style="stroke:#000000; stroke-linecap:butt; stroke-linejoin:round; stroke-width:2; stroke-opacity:0.1; fill:none" points="
  415.707,1486.45 415.707,47.2441 
  "/>
<polyline clip-path="url(#clip272)" style="stroke:#000000; stroke-linecap:butt; stroke-linejoin:round; stroke-width:2; stroke-opacity:0.1; fill:none" points="
  1021.87,1486.45 1021.87,47.2441 
  "/>
<polyline clip-path="url(#clip272)" style="stroke:#000000; stroke-linecap:butt; stroke-linejoin:round; stroke-width:2; stroke-opacity:0.1; fill:none" points="
  1628.03,1486.45 1628.03,47.2441 
  "/>
<polyline clip-path="url(#clip272)" style="stroke:#000000; stroke-linecap:butt; stroke-linejoin:round; stroke-width:2; stroke-opacity:0.1; fill:none" points="
  2234.19,1486.45 2234.19,47.2441 
  "/>
<polyline clip-path="url(#clip270)" style="stroke:#000000; stroke-linecap:butt; stroke-linejoin:round; stroke-width:4; stroke-opacity:1; fill:none" points="
  149.191,1486.45 2352.76,1486.45 
  "/>
<polyline clip-path="url(#clip270)" style="stroke:#000000; stroke-linecap:butt; stroke-linejoin:round; stroke-width:4; stroke-opacity:1; fill:none" points="
  415.707,1486.45 415.707,1467.55 
  "/>
<polyline clip-path="url(#clip270)" style="stroke:#000000; stroke-linecap:butt; stroke-linejoin:round; stroke-width:4; stroke-opacity:1; fill:none" points="
  1021.87,1486.45 1021.87,1467.55 
  "/>
<polyline clip-path="url(#clip270)" style="stroke:#000000; stroke-linecap:butt; stroke-linejoin:round; stroke-width:4; stroke-opacity:1; fill:none" points="
  1628.03,1486.45 1628.03,1467.55 
  "/>
<polyline clip-path="url(#clip270)" style="stroke:#000000; stroke-linecap:butt; stroke-linejoin:round; stroke-width:4; stroke-opacity:1; fill:none" points="
  2234.19,1486.45 2234.19,1467.55 
  "/>
<path clip-path="url(#clip270)" d="M369.77 1532.02 L399.446 1532.02 L399.446 1535.95 L369.77 1535.95 L369.77 1532.02 Z" fill="#000000" fill-rule="evenodd" fill-opacity="1" /><path clip-path="url(#clip270)" d="M423.705 1530.21 Q427.061 1530.93 428.936 1533.2 Q430.834 1535.47 430.834 1538.8 Q430.834 1543.92 427.316 1546.72 Q423.797 1549.52 417.316 1549.52 Q415.14 1549.52 412.825 1549.08 Q410.534 1548.66 408.08 1547.81 L408.08 1543.29 Q410.024 1544.43 412.339 1545.01 Q414.654 1545.58 417.177 1545.58 Q421.575 1545.58 423.867 1543.85 Q426.182 1542.11 426.182 1538.8 Q426.182 1535.75 424.029 1534.03 Q421.899 1532.3 418.08 1532.3 L414.052 1532.3 L414.052 1528.45 L418.265 1528.45 Q421.714 1528.45 423.543 1527.09 Q425.371 1525.7 425.371 1523.11 Q425.371 1520.45 423.473 1519.03 Q421.598 1517.6 418.08 1517.6 Q416.159 1517.6 413.959 1518.01 Q411.76 1518.43 409.122 1519.31 L409.122 1515.14 Q411.784 1514.4 414.098 1514.03 Q416.436 1513.66 418.496 1513.66 Q423.821 1513.66 426.922 1516.09 Q430.024 1518.5 430.024 1522.62 Q430.024 1525.49 428.381 1527.48 Q426.737 1529.45 423.705 1530.21 Z" fill="#000000" fill-rule="evenodd" fill-opacity="1" /><path clip-path="url(#clip270)" d="M449.7 1517.37 Q446.089 1517.37 444.26 1520.93 Q442.455 1524.47 442.455 1531.6 Q442.455 1538.71 444.26 1542.27 Q446.089 1545.82 449.7 1545.82 Q453.334 1545.82 455.14 1542.27 Q456.968 1538.71 456.968 1531.6 Q456.968 1524.47 455.14 1520.93 Q453.334 1517.37 449.7 1517.37 M449.7 1513.66 Q455.51 1513.66 458.566 1518.27 Q461.644 1522.85 461.644 1531.6 Q461.644 1540.33 458.566 1544.94 Q455.51 1549.52 449.7 1549.52 Q443.89 1549.52 440.811 1544.94 Q437.756 1540.33 437.756 1531.6 Q437.756 1522.85 440.811 1518.27 Q443.89 1513.66 449.7 1513.66 Z" fill="#000000" fill-rule="evenodd" fill-opacity="1" /><path clip-path="url(#clip270)" d="M975.932 1532.02 L1005.61 1532.02 L1005.61 1535.95 L975.932 1535.95 L975.932 1532.02 Z" fill="#000000" fill-rule="evenodd" fill-opacity="1" /><path clip-path="url(#clip270)" d="M1019.73 1544.91 L1036.05 1544.91 L1036.05 1548.85 L1014.1 1548.85 L1014.1 1544.91 Q1016.77 1542.16 1021.35 1537.53 Q1025.96 1532.88 1027.14 1531.53 Q1029.38 1529.01 1030.26 1527.27 Q1031.16 1525.51 1031.16 1523.82 Q1031.16 1521.07 1029.22 1519.33 Q1027.3 1517.6 1024.2 1517.6 Q1022 1517.6 1019.54 1518.36 Q1017.11 1519.13 1014.33 1520.68 L1014.33 1515.95 Q1017.16 1514.82 1019.61 1514.24 Q1022.07 1513.66 1024.1 1513.66 Q1029.47 1513.66 1032.67 1516.35 Q1035.86 1519.03 1035.86 1523.52 Q1035.86 1525.65 1035.05 1527.57 Q1034.27 1529.47 1032.16 1532.07 Q1031.58 1532.74 1028.48 1535.95 Q1025.38 1539.15 1019.73 1544.91 Z" fill="#000000" fill-rule="evenodd" fill-opacity="1" /><path clip-path="url(#clip270)" d="M1055.86 1517.37 Q1052.25 1517.37 1050.42 1520.93 Q1048.62 1524.47 1048.62 1531.6 Q1048.62 1538.71 1050.42 1542.27 Q1052.25 1545.82 1055.86 1545.82 Q1059.5 1545.82 1061.3 1542.27 Q1063.13 1538.71 1063.13 1531.6 Q1063.13 1524.47 1061.3 1520.93 Q1059.5 1517.37 1055.86 1517.37 M1055.86 1513.66 Q1061.67 1513.66 1064.73 1518.27 Q1067.81 1522.85 1067.81 1531.6 Q1067.81 1540.33 1064.73 1544.94 Q1061.67 1549.52 1055.86 1549.52 Q1050.05 1549.52 1046.97 1544.94 Q1043.92 1540.33 1043.92 1531.6 Q1043.92 1522.85 1046.97 1518.27 Q1050.05 1513.66 1055.86 1513.66 Z" fill="#000000" fill-rule="evenodd" fill-opacity="1" /><path clip-path="url(#clip270)" d="M1582.09 1532.02 L1611.77 1532.02 L1611.77 1535.95 L1582.09 1535.95 L1582.09 1532.02 Z" fill="#000000" fill-rule="evenodd" fill-opacity="1" /><path clip-path="url(#clip270)" d="M1622.67 1544.91 L1630.31 1544.91 L1630.31 1518.55 L1622 1520.21 L1622 1515.95 L1630.27 1514.29 L1634.94 1514.29 L1634.94 1544.91 L1642.58 1544.91 L1642.58 1548.85 L1622.67 1548.85 L1622.67 1544.91 Z" fill="#000000" fill-rule="evenodd" fill-opacity="1" /><path clip-path="url(#clip270)" d="M1662.02 1517.37 Q1658.41 1517.37 1656.59 1520.93 Q1654.78 1524.47 1654.78 1531.6 Q1654.78 1538.71 1656.59 1542.27 Q1658.41 1545.82 1662.02 1545.82 Q1665.66 1545.82 1667.46 1542.27 Q1669.29 1538.71 1669.29 1531.6 Q1669.29 1524.47 1667.46 1520.93 Q1665.66 1517.37 1662.02 1517.37 M1662.02 1513.66 Q1667.84 1513.66 1670.89 1518.27 Q1673.97 1522.85 1673.97 1531.6 Q1673.97 1540.33 1670.89 1544.94 Q1667.84 1549.52 1662.02 1549.52 Q1656.21 1549.52 1653.14 1544.94 Q1650.08 1540.33 1650.08 1531.6 Q1650.08 1522.85 1653.14 1518.27 Q1656.21 1513.66 1662.02 1513.66 Z" fill="#000000" fill-rule="evenodd" fill-opacity="1" /><path clip-path="url(#clip270)" d="M2234.19 1517.37 Q2230.58 1517.37 2228.75 1520.93 Q2226.95 1524.47 2226.95 1531.6 Q2226.95 1538.71 2228.75 1542.27 Q2230.58 1545.82 2234.19 1545.82 Q2237.83 1545.82 2239.63 1542.27 Q2241.46 1538.71 2241.46 1531.6 Q2241.46 1524.47 2239.63 1520.93 Q2237.83 1517.37 2234.19 1517.37 M2234.19 1513.66 Q2240 1513.66 2243.06 1518.27 Q2246.14 1522.85 2246.14 1531.6 Q2246.14 1540.33 2243.06 1544.94 Q2240 1549.52 2234.19 1549.52 Q2228.38 1549.52 2225.31 1544.94 Q2222.25 1540.33 2222.25 1531.6 Q2222.25 1522.85 2225.31 1518.27 Q2228.38 1513.66 2234.19 1513.66 Z" fill="#000000" fill-rule="evenodd" fill-opacity="1" /><polyline clip-path="url(#clip272)" style="stroke:#000000; stroke-linecap:butt; stroke-linejoin:round; stroke-width:2; stroke-opacity:0.1; fill:none" points="
  149.191,1339.55 2352.76,1339.55 
  "/>
<polyline clip-path="url(#clip272)" style="stroke:#000000; stroke-linecap:butt; stroke-linejoin:round; stroke-width:2; stroke-opacity:0.1; fill:none" points="
  149.191,1152.94 2352.76,1152.94 
  "/>
<polyline clip-path="url(#clip272)" style="stroke:#000000; stroke-linecap:butt; stroke-linejoin:round; stroke-width:2; stroke-opacity:0.1; fill:none" points="
  149.191,966.325 2352.76,966.325 
  "/>
<polyline clip-path="url(#clip272)" style="stroke:#000000; stroke-linecap:butt; stroke-linejoin:round; stroke-width:2; stroke-opacity:0.1; fill:none" points="
  149.191,779.713 2352.76,779.713 
  "/>
<polyline clip-path="url(#clip272)" style="stroke:#000000; stroke-linecap:butt; stroke-linejoin:round; stroke-width:2; stroke-opacity:0.1; fill:none" points="
  149.191,593.102 2352.76,593.102 
  "/>
<polyline clip-path="url(#clip272)" style="stroke:#000000; stroke-linecap:butt; stroke-linejoin:round; stroke-width:2; stroke-opacity:0.1; fill:none" points="
  149.191,406.49 2352.76,406.49 
  "/>
<polyline clip-path="url(#clip272)" style="stroke:#000000; stroke-linecap:butt; stroke-linejoin:round; stroke-width:2; stroke-opacity:0.1; fill:none" points="
  149.191,219.878 2352.76,219.878 
  "/>
<polyline clip-path="url(#clip270)" style="stroke:#000000; stroke-linecap:butt; stroke-linejoin:round; stroke-width:4; stroke-opacity:1; fill:none" points="
  149.191,1486.45 149.191,47.2441 
  "/>
<polyline clip-path="url(#clip270)" style="stroke:#000000; stroke-linecap:butt; stroke-linejoin:round; stroke-width:4; stroke-opacity:1; fill:none" points="
  149.191,1339.55 168.089,1339.55 
  "/>
<polyline clip-path="url(#clip270)" style="stroke:#000000; stroke-linecap:butt; stroke-linejoin:round; stroke-width:4; stroke-opacity:1; fill:none" points="
  149.191,1152.94 168.089,1152.94 
  "/>
<polyline clip-path="url(#clip270)" style="stroke:#000000; stroke-linecap:butt; stroke-linejoin:round; stroke-width:4; stroke-opacity:1; fill:none" points="
  149.191,966.325 168.089,966.325 
  "/>
<polyline clip-path="url(#clip270)" style="stroke:#000000; stroke-linecap:butt; stroke-linejoin:round; stroke-width:4; stroke-opacity:1; fill:none" points="
  149.191,779.713 168.089,779.713 
  "/>
<polyline clip-path="url(#clip270)" style="stroke:#000000; stroke-linecap:butt; stroke-linejoin:round; stroke-width:4; stroke-opacity:1; fill:none" points="
  149.191,593.102 168.089,593.102 
  "/>
<polyline clip-path="url(#clip270)" style="stroke:#000000; stroke-linecap:butt; stroke-linejoin:round; stroke-width:4; stroke-opacity:1; fill:none" points="
  149.191,406.49 168.089,406.49 
  "/>
<polyline clip-path="url(#clip270)" style="stroke:#000000; stroke-linecap:butt; stroke-linejoin:round; stroke-width:4; stroke-opacity:1; fill:none" points="
  149.191,219.878 168.089,219.878 
  "/>
<path clip-path="url(#clip270)" d="M51.5708 1340 L81.2466 1340 L81.2466 1343.93 L51.5708 1343.93 L51.5708 1340 Z" fill="#000000" fill-rule="evenodd" fill-opacity="1" /><path clip-path="url(#clip270)" d="M101.339 1340.42 Q98.0058 1340.42 96.0845 1342.2 Q94.1863 1343.98 94.1863 1347.11 Q94.1863 1350.23 96.0845 1352.01 Q98.0058 1353.8 101.339 1353.8 Q104.672 1353.8 106.594 1352.01 Q108.515 1350.21 108.515 1347.11 Q108.515 1343.98 106.594 1342.2 Q104.696 1340.42 101.339 1340.42 M96.6632 1338.43 Q93.6539 1337.68 91.9641 1335.62 Q90.2975 1333.56 90.2975 1330.6 Q90.2975 1326.46 93.2373 1324.05 Q96.2002 1321.64 101.339 1321.64 Q106.501 1321.64 109.441 1324.05 Q112.381 1326.46 112.381 1330.6 Q112.381 1333.56 110.691 1335.62 Q109.024 1337.68 106.038 1338.43 Q109.418 1339.21 111.293 1341.5 Q113.191 1343.8 113.191 1347.11 Q113.191 1352.13 110.112 1354.81 Q107.057 1357.5 101.339 1357.5 Q95.6215 1357.5 92.5428 1354.81 Q89.4873 1352.13 89.4873 1347.11 Q89.4873 1343.8 91.3854 1341.5 Q93.2836 1339.21 96.6632 1338.43 M94.9502 1331.04 Q94.9502 1333.73 96.6169 1335.23 Q98.3067 1336.74 101.339 1336.74 Q104.348 1336.74 106.038 1335.23 Q107.751 1333.73 107.751 1331.04 Q107.751 1328.36 106.038 1326.85 Q104.348 1325.35 101.339 1325.35 Q98.3067 1325.35 96.6169 1326.85 Q94.9502 1328.36 94.9502 1331.04 Z" fill="#000000" fill-rule="evenodd" fill-opacity="1" /><path clip-path="url(#clip270)" d="M51.3162 1153.39 L80.992 1153.39 L80.992 1157.32 L51.3162 1157.32 L51.3162 1153.39 Z" fill="#000000" fill-rule="evenodd" fill-opacity="1" /><path clip-path="url(#clip270)" d="M101.663 1151.07 Q98.515 1151.07 96.6632 1153.23 Q94.8345 1155.38 94.8345 1159.13 Q94.8345 1162.86 96.6632 1165.03 Q98.515 1167.18 101.663 1167.18 Q104.811 1167.18 106.64 1165.03 Q108.492 1162.86 108.492 1159.13 Q108.492 1155.38 106.64 1153.23 Q104.811 1151.07 101.663 1151.07 M110.946 1136.42 L110.946 1140.68 Q109.186 1139.85 107.381 1139.41 Q105.598 1138.97 103.839 1138.97 Q99.2095 1138.97 96.7558 1142.09 Q94.3252 1145.22 93.978 1151.54 Q95.3437 1149.52 97.4039 1148.46 Q99.4641 1147.37 101.941 1147.37 Q107.149 1147.37 110.158 1150.54 Q113.191 1153.69 113.191 1159.13 Q113.191 1164.45 110.043 1167.67 Q106.895 1170.89 101.663 1170.89 Q95.6678 1170.89 92.4965 1166.3 Q89.3253 1161.7 89.3253 1152.97 Q89.3253 1144.78 93.2141 1139.92 Q97.103 1135.03 103.654 1135.03 Q105.413 1135.03 107.196 1135.38 Q109.001 1135.73 110.946 1136.42 Z" fill="#000000" fill-rule="evenodd" fill-opacity="1" /><path clip-path="url(#clip270)" d="M50.9921 966.776 L80.6679 966.776 L80.6679 970.711 L50.9921 970.711 L50.9921 966.776 Z" fill="#000000" fill-rule="evenodd" fill-opacity="1" /><path clip-path="url(#clip270)" d="M103.608 953.119 L91.8021 971.568 L103.608 971.568 L103.608 953.119 M102.381 949.045 L108.26 949.045 L108.26 971.568 L113.191 971.568 L113.191 975.457 L108.26 975.457 L108.26 983.605 L103.608 983.605 L103.608 975.457 L88.0058 975.457 L88.0058 970.943 L102.381 949.045 Z" fill="#000000" fill-rule="evenodd" fill-opacity="1" /><path clip-path="url(#clip270)" d="M53.0754 780.165 L82.7512 780.165 L82.7512 784.1 L53.0754 784.1 L53.0754 780.165 Z" fill="#000000" fill-rule="evenodd" fill-opacity="1" /><path clip-path="url(#clip270)" d="M96.8715 793.058 L113.191 793.058 L113.191 796.993 L91.2465 796.993 L91.2465 793.058 Q93.9086 790.303 98.4919 785.674 Q103.098 781.021 104.279 779.678 Q106.524 777.155 107.404 775.419 Q108.307 773.66 108.307 771.97 Q108.307 769.216 106.362 767.479 Q104.441 765.743 101.339 765.743 Q99.14 765.743 96.6863 766.507 Q94.2558 767.271 91.478 768.822 L91.478 764.1 Q94.3021 762.966 96.7558 762.387 Q99.2095 761.808 101.246 761.808 Q106.617 761.808 109.811 764.493 Q113.006 767.179 113.006 771.669 Q113.006 773.799 112.196 775.72 Q111.408 777.618 109.302 780.211 Q108.723 780.882 105.621 784.1 Q102.52 787.294 96.8715 793.058 Z" fill="#000000" fill-rule="evenodd" fill-opacity="1" /><path clip-path="url(#clip270)" d="M101.246 578.9 Q97.6354 578.9 95.8067 582.465 Q94.0012 586.007 94.0012 593.136 Q94.0012 600.243 95.8067 603.807 Q97.6354 607.349 101.246 607.349 Q104.881 607.349 106.686 603.807 Q108.515 600.243 108.515 593.136 Q108.515 586.007 106.686 582.465 Q104.881 578.9 101.246 578.9 M101.246 575.197 Q107.057 575.197 110.112 579.803 Q113.191 584.386 113.191 593.136 Q113.191 601.863 110.112 606.469 Q107.057 611.053 101.246 611.053 Q95.4363 611.053 92.3576 606.469 Q89.3021 601.863 89.3021 593.136 Q89.3021 584.386 92.3576 579.803 Q95.4363 575.197 101.246 575.197 Z" fill="#000000" fill-rule="evenodd" fill-opacity="1" /><path clip-path="url(#clip270)" d="M96.8715 419.835 L113.191 419.835 L113.191 423.77 L91.2465 423.77 L91.2465 419.835 Q93.9086 417.08 98.4919 412.45 Q103.098 407.798 104.279 406.455 Q106.524 403.932 107.404 402.196 Q108.307 400.437 108.307 398.747 Q108.307 395.992 106.362 394.256 Q104.441 392.52 101.339 392.52 Q99.14 392.52 96.6863 393.284 Q94.2558 394.048 91.478 395.599 L91.478 390.876 Q94.3021 389.742 96.7558 389.164 Q99.2095 388.585 101.246 388.585 Q106.617 388.585 109.811 391.27 Q113.006 393.955 113.006 398.446 Q113.006 400.576 112.196 402.497 Q111.408 404.395 109.302 406.988 Q108.723 407.659 105.621 410.876 Q102.52 414.071 96.8715 419.835 Z" fill="#000000" fill-rule="evenodd" fill-opacity="1" /><path clip-path="url(#clip270)" d="M103.608 206.672 L91.8021 225.121 L103.608 225.121 L103.608 206.672 M102.381 202.598 L108.26 202.598 L108.26 225.121 L113.191 225.121 L113.191 229.01 L108.26 229.01 L108.26 237.158 L103.608 237.158 L103.608 229.01 L88.0058 229.01 L88.0058 224.496 L102.381 202.598 Z" fill="#000000" fill-rule="evenodd" fill-opacity="1" /><circle clip-path="url(#clip272)" cx="2265.04" cy="557.436" r="7.2" fill="#009af9" fill-rule="evenodd" fill-opacity="1" stroke="#000000" stroke-opacity="1" stroke-width="3.2"/>
<circle clip-path="url(#clip272)" cx="2220.18" cy="675.339" r="7.2" fill="#009af9" fill-rule="evenodd" fill-opacity="1" stroke="#000000" stroke-opacity="1" stroke-width="3.2"/>
<circle clip-path="url(#clip272)" cx="2216.48" cy="617.637" r="7.2" fill="#009af9" fill-rule="evenodd" fill-opacity="1" stroke="#000000" stroke-opacity="1" stroke-width="3.2"/>
<circle clip-path="url(#clip272)" cx="2248.92" cy="642.635" r="7.2" fill="#009af9" fill-rule="evenodd" fill-opacity="1" stroke="#000000" stroke-opacity="1" stroke-width="3.2"/>
<circle clip-path="url(#clip272)" cx="2259.92" cy="624.698" r="7.2" fill="#009af9" fill-rule="evenodd" fill-opacity="1" stroke="#000000" stroke-opacity="1" stroke-width="3.2"/>
<circle clip-path="url(#clip272)" cx="2230.28" cy="585.973" r="7.2" fill="#009af9" fill-rule="evenodd" fill-opacity="1" stroke="#000000" stroke-opacity="1" stroke-width="3.2"/>
<circle clip-path="url(#clip272)" cx="2286.85" cy="672.943" r="7.2" fill="#009af9" fill-rule="evenodd" fill-opacity="1" stroke="#000000" stroke-opacity="1" stroke-width="3.2"/>
<circle clip-path="url(#clip272)" cx="2218.63" cy="635.61" r="7.2" fill="#009af9" fill-rule="evenodd" fill-opacity="1" stroke="#000000" stroke-opacity="1" stroke-width="3.2"/>
<circle clip-path="url(#clip272)" cx="2228.96" cy="649.534" r="7.2" fill="#009af9" fill-rule="evenodd" fill-opacity="1" stroke="#000000" stroke-opacity="1" stroke-width="3.2"/>
<circle clip-path="url(#clip272)" cx="2225.7" cy="570.877" r="7.2" fill="#009af9" fill-rule="evenodd" fill-opacity="1" stroke="#000000" stroke-opacity="1" stroke-width="3.2"/>
<circle clip-path="url(#clip272)" cx="2205.55" cy="579.781" r="7.2" fill="#009af9" fill-rule="evenodd" fill-opacity="1" stroke="#000000" stroke-opacity="1" stroke-width="3.2"/>
<circle clip-path="url(#clip272)" cx="2204.43" cy="628.535" r="7.2" fill="#009af9" fill-rule="evenodd" fill-opacity="1" stroke="#000000" stroke-opacity="1" stroke-width="3.2"/>
<circle clip-path="url(#clip272)" cx="2264.16" cy="564.606" r="7.2" fill="#009af9" fill-rule="evenodd" fill-opacity="1" stroke="#000000" stroke-opacity="1" stroke-width="3.2"/>
<circle clip-path="url(#clip272)" cx="2218.51" cy="569.936" r="7.2" fill="#009af9" fill-rule="evenodd" fill-opacity="1" stroke="#000000" stroke-opacity="1" stroke-width="3.2"/>
<circle clip-path="url(#clip272)" cx="2234.29" cy="687.323" r="7.2" fill="#009af9" fill-rule="evenodd" fill-opacity="1" stroke="#000000" stroke-opacity="1" stroke-width="3.2"/>
<circle clip-path="url(#clip272)" cx="2279.83" cy="604.968" r="7.2" fill="#009af9" fill-rule="evenodd" fill-opacity="1" stroke="#000000" stroke-opacity="1" stroke-width="3.2"/>
<circle clip-path="url(#clip272)" cx="2285.11" cy="637.579" r="7.2" fill="#009af9" fill-rule="evenodd" fill-opacity="1" stroke="#000000" stroke-opacity="1" stroke-width="3.2"/>
<circle clip-path="url(#clip272)" cx="2225.14" cy="531.083" r="7.2" fill="#009af9" fill-rule="evenodd" fill-opacity="1" stroke="#000000" stroke-opacity="1" stroke-width="3.2"/>
<circle clip-path="url(#clip272)" cx="2209.15" cy="610.802" r="7.2" fill="#009af9" fill-rule="evenodd" fill-opacity="1" stroke="#000000" stroke-opacity="1" stroke-width="3.2"/>
<circle clip-path="url(#clip272)" cx="2224.13" cy="557.267" r="7.2" fill="#009af9" fill-rule="evenodd" fill-opacity="1" stroke="#000000" stroke-opacity="1" stroke-width="3.2"/>
<circle clip-path="url(#clip272)" cx="2236.05" cy="506.255" r="7.2" fill="#009af9" fill-rule="evenodd" fill-opacity="1" stroke="#000000" stroke-opacity="1" stroke-width="3.2"/>
<circle clip-path="url(#clip272)" cx="2202.35" cy="527.244" r="7.2" fill="#009af9" fill-rule="evenodd" fill-opacity="1" stroke="#000000" stroke-opacity="1" stroke-width="3.2"/>
<circle clip-path="url(#clip272)" cx="2290.39" cy="489.775" r="7.2" fill="#009af9" fill-rule="evenodd" fill-opacity="1" stroke="#000000" stroke-opacity="1" stroke-width="3.2"/>
<circle clip-path="url(#clip272)" cx="2229.25" cy="440.644" r="7.2" fill="#009af9" fill-rule="evenodd" fill-opacity="1" stroke="#000000" stroke-opacity="1" stroke-width="3.2"/>
<circle clip-path="url(#clip272)" cx="2189.13" cy="577.574" r="7.2" fill="#009af9" fill-rule="evenodd" fill-opacity="1" stroke="#000000" stroke-opacity="1" stroke-width="3.2"/>
<circle clip-path="url(#clip272)" cx="2218.22" cy="504.784" r="7.2" fill="#009af9" fill-rule="evenodd" fill-opacity="1" stroke="#000000" stroke-opacity="1" stroke-width="3.2"/>
<circle clip-path="url(#clip272)" cx="2229.87" cy="468.943" r="7.2" fill="#009af9" fill-rule="evenodd" fill-opacity="1" stroke="#000000" stroke-opacity="1" stroke-width="3.2"/>
<circle clip-path="url(#clip272)" cx="2185.57" cy="483.974" r="7.2" fill="#009af9" fill-rule="evenodd" fill-opacity="1" stroke="#000000" stroke-opacity="1" stroke-width="3.2"/>
<circle clip-path="url(#clip272)" cx="2229.07" cy="416.726" r="7.2" fill="#009af9" fill-rule="evenodd" fill-opacity="1" stroke="#000000" stroke-opacity="1" stroke-width="3.2"/>
<circle clip-path="url(#clip272)" cx="2230.95" cy="457.559" r="7.2" fill="#009af9" fill-rule="evenodd" fill-opacity="1" stroke="#000000" stroke-opacity="1" stroke-width="3.2"/>
<circle clip-path="url(#clip272)" cx="2173.86" cy="491.507" r="7.2" fill="#009af9" fill-rule="evenodd" fill-opacity="1" stroke="#000000" stroke-opacity="1" stroke-width="3.2"/>
<circle clip-path="url(#clip272)" cx="2219.58" cy="432.857" r="7.2" fill="#009af9" fill-rule="evenodd" fill-opacity="1" stroke="#000000" stroke-opacity="1" stroke-width="3.2"/>
<circle clip-path="url(#clip272)" cx="2219.57" cy="412.676" r="7.2" fill="#009af9" fill-rule="evenodd" fill-opacity="1" stroke="#000000" stroke-opacity="1" stroke-width="3.2"/>
<circle clip-path="url(#clip272)" cx="2211.8" cy="382.99" r="7.2" fill="#009af9" fill-rule="evenodd" fill-opacity="1" stroke="#000000" stroke-opacity="1" stroke-width="3.2"/>
<circle clip-path="url(#clip272)" cx="2166.94" cy="407.841" r="7.2" fill="#009af9" fill-rule="evenodd" fill-opacity="1" stroke="#000000" stroke-opacity="1" stroke-width="3.2"/>
<circle clip-path="url(#clip272)" cx="2185.79" cy="351.297" r="7.2" fill="#009af9" fill-rule="evenodd" fill-opacity="1" stroke="#000000" stroke-opacity="1" stroke-width="3.2"/>
<circle clip-path="url(#clip272)" cx="2140.17" cy="296.956" r="7.2" fill="#009af9" fill-rule="evenodd" fill-opacity="1" stroke="#000000" stroke-opacity="1" stroke-width="3.2"/>
<circle clip-path="url(#clip272)" cx="2253.76" cy="269.498" r="7.2" fill="#009af9" fill-rule="evenodd" fill-opacity="1" stroke="#000000" stroke-opacity="1" stroke-width="3.2"/>
<circle clip-path="url(#clip272)" cx="2229.65" cy="275.23" r="7.2" fill="#009af9" fill-rule="evenodd" fill-opacity="1" stroke="#000000" stroke-opacity="1" stroke-width="3.2"/>
<circle clip-path="url(#clip272)" cx="2124.11" cy="236.637" r="7.2" fill="#009af9" fill-rule="evenodd" fill-opacity="1" stroke="#000000" stroke-opacity="1" stroke-width="3.2"/>
<circle clip-path="url(#clip272)" cx="2124.14" cy="245.632" r="7.2" fill="#009af9" fill-rule="evenodd" fill-opacity="1" stroke="#000000" stroke-opacity="1" stroke-width="3.2"/>
<circle clip-path="url(#clip272)" cx="2149.59" cy="260.831" r="7.2" fill="#009af9" fill-rule="evenodd" fill-opacity="1" stroke="#000000" stroke-opacity="1" stroke-width="3.2"/>
<circle clip-path="url(#clip272)" cx="2153.1" cy="206.033" r="7.2" fill="#009af9" fill-rule="evenodd" fill-opacity="1" stroke="#000000" stroke-opacity="1" stroke-width="3.2"/>
<circle clip-path="url(#clip272)" cx="2072.4" cy="172.72" r="7.2" fill="#009af9" fill-rule="evenodd" fill-opacity="1" stroke="#000000" stroke-opacity="1" stroke-width="3.2"/>
<circle clip-path="url(#clip272)" cx="2148.36" cy="194.79" r="7.2" fill="#009af9" fill-rule="evenodd" fill-opacity="1" stroke="#000000" stroke-opacity="1" stroke-width="3.2"/>
<circle clip-path="url(#clip272)" cx="2162.44" cy="228.77" r="7.2" fill="#009af9" fill-rule="evenodd" fill-opacity="1" stroke="#000000" stroke-opacity="1" stroke-width="3.2"/>
<circle clip-path="url(#clip272)" cx="2079.2" cy="199.28" r="7.2" fill="#009af9" fill-rule="evenodd" fill-opacity="1" stroke="#000000" stroke-opacity="1" stroke-width="3.2"/>
<circle clip-path="url(#clip272)" cx="2089.08" cy="119.134" r="7.2" fill="#009af9" fill-rule="evenodd" fill-opacity="1" stroke="#000000" stroke-opacity="1" stroke-width="3.2"/>
<circle clip-path="url(#clip272)" cx="2105.89" cy="114.907" r="7.2" fill="#009af9" fill-rule="evenodd" fill-opacity="1" stroke="#000000" stroke-opacity="1" stroke-width="3.2"/>
<circle clip-path="url(#clip272)" cx="2025.54" cy="193.783" r="7.2" fill="#009af9" fill-rule="evenodd" fill-opacity="1" stroke="#000000" stroke-opacity="1" stroke-width="3.2"/>
<circle clip-path="url(#clip272)" cx="2058.99" cy="132.843" r="7.2" fill="#009af9" fill-rule="evenodd" fill-opacity="1" stroke="#000000" stroke-opacity="1" stroke-width="3.2"/>
<circle clip-path="url(#clip272)" cx="1998.45" cy="157.371" r="7.2" fill="#009af9" fill-rule="evenodd" fill-opacity="1" stroke="#000000" stroke-opacity="1" stroke-width="3.2"/>
<circle clip-path="url(#clip272)" cx="2059.1" cy="146.297" r="7.2" fill="#009af9" fill-rule="evenodd" fill-opacity="1" stroke="#000000" stroke-opacity="1" stroke-width="3.2"/>
<circle clip-path="url(#clip272)" cx="2005.44" cy="87.9763" r="7.2" fill="#009af9" fill-rule="evenodd" fill-opacity="1" stroke="#000000" stroke-opacity="1" stroke-width="3.2"/>
<circle clip-path="url(#clip272)" cx="1997.37" cy="207.186" r="7.2" fill="#009af9" fill-rule="evenodd" fill-opacity="1" stroke="#000000" stroke-opacity="1" stroke-width="3.2"/>
<circle clip-path="url(#clip272)" cx="1979.42" cy="145.89" r="7.2" fill="#009af9" fill-rule="evenodd" fill-opacity="1" stroke="#000000" stroke-opacity="1" stroke-width="3.2"/>
<circle clip-path="url(#clip272)" cx="1934.43" cy="163.686" r="7.2" fill="#009af9" fill-rule="evenodd" fill-opacity="1" stroke="#000000" stroke-opacity="1" stroke-width="3.2"/>
<circle clip-path="url(#clip272)" cx="1961.76" cy="134.595" r="7.2" fill="#009af9" fill-rule="evenodd" fill-opacity="1" stroke="#000000" stroke-opacity="1" stroke-width="3.2"/>
<circle clip-path="url(#clip272)" cx="1990.46" cy="115.885" r="7.2" fill="#009af9" fill-rule="evenodd" fill-opacity="1" stroke="#000000" stroke-opacity="1" stroke-width="3.2"/>
<circle clip-path="url(#clip272)" cx="1932.65" cy="141.037" r="7.2" fill="#009af9" fill-rule="evenodd" fill-opacity="1" stroke="#000000" stroke-opacity="1" stroke-width="3.2"/>
<circle clip-path="url(#clip272)" cx="1933.05" cy="160.466" r="7.2" fill="#009af9" fill-rule="evenodd" fill-opacity="1" stroke="#000000" stroke-opacity="1" stroke-width="3.2"/>
<circle clip-path="url(#clip272)" cx="1883.07" cy="191.148" r="7.2" fill="#009af9" fill-rule="evenodd" fill-opacity="1" stroke="#000000" stroke-opacity="1" stroke-width="3.2"/>
<circle clip-path="url(#clip272)" cx="1919.67" cy="182.888" r="7.2" fill="#009af9" fill-rule="evenodd" fill-opacity="1" stroke="#000000" stroke-opacity="1" stroke-width="3.2"/>
<circle clip-path="url(#clip272)" cx="1866.68" cy="187.8" r="7.2" fill="#009af9" fill-rule="evenodd" fill-opacity="1" stroke="#000000" stroke-opacity="1" stroke-width="3.2"/>
<circle clip-path="url(#clip272)" cx="1920.76" cy="294.962" r="7.2" fill="#009af9" fill-rule="evenodd" fill-opacity="1" stroke="#000000" stroke-opacity="1" stroke-width="3.2"/>
<circle clip-path="url(#clip272)" cx="1923.56" cy="300.855" r="7.2" fill="#009af9" fill-rule="evenodd" fill-opacity="1" stroke="#000000" stroke-opacity="1" stroke-width="3.2"/>
<circle clip-path="url(#clip272)" cx="1844.15" cy="122.297" r="7.2" fill="#009af9" fill-rule="evenodd" fill-opacity="1" stroke="#000000" stroke-opacity="1" stroke-width="3.2"/>
<circle clip-path="url(#clip272)" cx="1874.38" cy="197.786" r="7.2" fill="#009af9" fill-rule="evenodd" fill-opacity="1" stroke="#000000" stroke-opacity="1" stroke-width="3.2"/>
<circle clip-path="url(#clip272)" cx="1898.53" cy="168.101" r="7.2" fill="#009af9" fill-rule="evenodd" fill-opacity="1" stroke="#000000" stroke-opacity="1" stroke-width="3.2"/>
<circle clip-path="url(#clip272)" cx="1883.71" cy="164.654" r="7.2" fill="#009af9" fill-rule="evenodd" fill-opacity="1" stroke="#000000" stroke-opacity="1" stroke-width="3.2"/>
<circle clip-path="url(#clip272)" cx="1971.74" cy="347.851" r="7.2" fill="#009af9" fill-rule="evenodd" fill-opacity="1" stroke="#000000" stroke-opacity="1" stroke-width="3.2"/>
<circle clip-path="url(#clip272)" cx="1918.58" cy="141.681" r="7.2" fill="#009af9" fill-rule="evenodd" fill-opacity="1" stroke="#000000" stroke-opacity="1" stroke-width="3.2"/>
<circle clip-path="url(#clip272)" cx="1895.19" cy="203.828" r="7.2" fill="#009af9" fill-rule="evenodd" fill-opacity="1" stroke="#000000" stroke-opacity="1" stroke-width="3.2"/>
<circle clip-path="url(#clip272)" cx="1887.03" cy="155.216" r="7.2" fill="#009af9" fill-rule="evenodd" fill-opacity="1" stroke="#000000" stroke-opacity="1" stroke-width="3.2"/>
<circle clip-path="url(#clip272)" cx="1922.11" cy="186.946" r="7.2" fill="#009af9" fill-rule="evenodd" fill-opacity="1" stroke="#000000" stroke-opacity="1" stroke-width="3.2"/>
<circle clip-path="url(#clip272)" cx="1928.27" cy="223.24" r="7.2" fill="#009af9" fill-rule="evenodd" fill-opacity="1" stroke="#000000" stroke-opacity="1" stroke-width="3.2"/>
<circle clip-path="url(#clip272)" cx="1832.72" cy="226.115" r="7.2" fill="#009af9" fill-rule="evenodd" fill-opacity="1" stroke="#000000" stroke-opacity="1" stroke-width="3.2"/>
<circle clip-path="url(#clip272)" cx="1862.02" cy="245.019" r="7.2" fill="#009af9" fill-rule="evenodd" fill-opacity="1" stroke="#000000" stroke-opacity="1" stroke-width="3.2"/>
<circle clip-path="url(#clip272)" cx="1829.26" cy="320.932" r="7.2" fill="#009af9" fill-rule="evenodd" fill-opacity="1" stroke="#000000" stroke-opacity="1" stroke-width="3.2"/>
<circle clip-path="url(#clip272)" cx="1859.83" cy="169.22" r="7.2" fill="#009af9" fill-rule="evenodd" fill-opacity="1" stroke="#000000" stroke-opacity="1" stroke-width="3.2"/>
<circle clip-path="url(#clip272)" cx="1810.64" cy="294.174" r="7.2" fill="#009af9" fill-rule="evenodd" fill-opacity="1" stroke="#000000" stroke-opacity="1" stroke-width="3.2"/>
<circle clip-path="url(#clip272)" cx="1829.31" cy="286.813" r="7.2" fill="#009af9" fill-rule="evenodd" fill-opacity="1" stroke="#000000" stroke-opacity="1" stroke-width="3.2"/>
<circle clip-path="url(#clip272)" cx="1813.54" cy="312.45" r="7.2" fill="#009af9" fill-rule="evenodd" fill-opacity="1" stroke="#000000" stroke-opacity="1" stroke-width="3.2"/>
<circle clip-path="url(#clip272)" cx="1773.39" cy="261.282" r="7.2" fill="#009af9" fill-rule="evenodd" fill-opacity="1" stroke="#000000" stroke-opacity="1" stroke-width="3.2"/>
<circle clip-path="url(#clip272)" cx="1809.9" cy="342.284" r="7.2" fill="#009af9" fill-rule="evenodd" fill-opacity="1" stroke="#000000" stroke-opacity="1" stroke-width="3.2"/>
<circle clip-path="url(#clip272)" cx="1759.05" cy="307.263" r="7.2" fill="#009af9" fill-rule="evenodd" fill-opacity="1" stroke="#000000" stroke-opacity="1" stroke-width="3.2"/>
<circle clip-path="url(#clip272)" cx="1772.08" cy="368.565" r="7.2" fill="#009af9" fill-rule="evenodd" fill-opacity="1" stroke="#000000" stroke-opacity="1" stroke-width="3.2"/>
<circle clip-path="url(#clip272)" cx="1666.56" cy="368.549" r="7.2" fill="#009af9" fill-rule="evenodd" fill-opacity="1" stroke="#000000" stroke-opacity="1" stroke-width="3.2"/>
<circle clip-path="url(#clip272)" cx="1706.04" cy="354.119" r="7.2" fill="#009af9" fill-rule="evenodd" fill-opacity="1" stroke="#000000" stroke-opacity="1" stroke-width="3.2"/>
<circle clip-path="url(#clip272)" cx="1668.98" cy="377.781" r="7.2" fill="#009af9" fill-rule="evenodd" fill-opacity="1" stroke="#000000" stroke-opacity="1" stroke-width="3.2"/>
<circle clip-path="url(#clip272)" cx="1673.57" cy="427.575" r="7.2" fill="#009af9" fill-rule="evenodd" fill-opacity="1" stroke="#000000" stroke-opacity="1" stroke-width="3.2"/>
<circle clip-path="url(#clip272)" cx="1651.52" cy="436.59" r="7.2" fill="#009af9" fill-rule="evenodd" fill-opacity="1" stroke="#000000" stroke-opacity="1" stroke-width="3.2"/>
<circle clip-path="url(#clip272)" cx="1587.98" cy="435.895" r="7.2" fill="#009af9" fill-rule="evenodd" fill-opacity="1" stroke="#000000" stroke-opacity="1" stroke-width="3.2"/>
<circle clip-path="url(#clip272)" cx="1635.74" cy="353.717" r="7.2" fill="#009af9" fill-rule="evenodd" fill-opacity="1" stroke="#000000" stroke-opacity="1" stroke-width="3.2"/>
<circle clip-path="url(#clip272)" cx="1613.14" cy="357.866" r="7.2" fill="#009af9" fill-rule="evenodd" fill-opacity="1" stroke="#000000" stroke-opacity="1" stroke-width="3.2"/>
<circle clip-path="url(#clip272)" cx="1568.05" cy="470.78" r="7.2" fill="#009af9" fill-rule="evenodd" fill-opacity="1" stroke="#000000" stroke-opacity="1" stroke-width="3.2"/>
<circle clip-path="url(#clip272)" cx="1513.46" cy="459.678" r="7.2" fill="#009af9" fill-rule="evenodd" fill-opacity="1" stroke="#000000" stroke-opacity="1" stroke-width="3.2"/>
<circle clip-path="url(#clip272)" cx="1561.27" cy="434.67" r="7.2" fill="#009af9" fill-rule="evenodd" fill-opacity="1" stroke="#000000" stroke-opacity="1" stroke-width="3.2"/>
<circle clip-path="url(#clip272)" cx="1542.39" cy="436.595" r="7.2" fill="#009af9" fill-rule="evenodd" fill-opacity="1" stroke="#000000" stroke-opacity="1" stroke-width="3.2"/>
<circle clip-path="url(#clip272)" cx="1497.17" cy="397.901" r="7.2" fill="#009af9" fill-rule="evenodd" fill-opacity="1" stroke="#000000" stroke-opacity="1" stroke-width="3.2"/>
<circle clip-path="url(#clip272)" cx="1526.53" cy="467.556" r="7.2" fill="#009af9" fill-rule="evenodd" fill-opacity="1" stroke="#000000" stroke-opacity="1" stroke-width="3.2"/>
<circle clip-path="url(#clip272)" cx="1466.05" cy="422.62" r="7.2" fill="#009af9" fill-rule="evenodd" fill-opacity="1" stroke="#000000" stroke-opacity="1" stroke-width="3.2"/>
<circle clip-path="url(#clip272)" cx="1458" cy="524.726" r="7.2" fill="#009af9" fill-rule="evenodd" fill-opacity="1" stroke="#000000" stroke-opacity="1" stroke-width="3.2"/>
<circle clip-path="url(#clip272)" cx="1450.37" cy="455.613" r="7.2" fill="#009af9" fill-rule="evenodd" fill-opacity="1" stroke="#000000" stroke-opacity="1" stroke-width="3.2"/>
<circle clip-path="url(#clip272)" cx="1460.38" cy="482.603" r="7.2" fill="#009af9" fill-rule="evenodd" fill-opacity="1" stroke="#000000" stroke-opacity="1" stroke-width="3.2"/>
<circle clip-path="url(#clip272)" cx="1479" cy="453.876" r="7.2" fill="#009af9" fill-rule="evenodd" fill-opacity="1" stroke="#000000" stroke-opacity="1" stroke-width="3.2"/>
<circle clip-path="url(#clip272)" cx="1432.96" cy="584.795" r="7.2" fill="#009af9" fill-rule="evenodd" fill-opacity="1" stroke="#000000" stroke-opacity="1" stroke-width="3.2"/>
<circle clip-path="url(#clip272)" cx="1369.94" cy="464.35" r="7.2" fill="#009af9" fill-rule="evenodd" fill-opacity="1" stroke="#000000" stroke-opacity="1" stroke-width="3.2"/>
<circle clip-path="url(#clip272)" cx="1383.22" cy="468.205" r="7.2" fill="#009af9" fill-rule="evenodd" fill-opacity="1" stroke="#000000" stroke-opacity="1" stroke-width="3.2"/>
<circle clip-path="url(#clip272)" cx="1370.57" cy="444.39" r="7.2" fill="#009af9" fill-rule="evenodd" fill-opacity="1" stroke="#000000" stroke-opacity="1" stroke-width="3.2"/>
<circle clip-path="url(#clip272)" cx="1385.81" cy="508.444" r="7.2" fill="#009af9" fill-rule="evenodd" fill-opacity="1" stroke="#000000" stroke-opacity="1" stroke-width="3.2"/>
<circle clip-path="url(#clip272)" cx="1376.54" cy="564.642" r="7.2" fill="#009af9" fill-rule="evenodd" fill-opacity="1" stroke="#000000" stroke-opacity="1" stroke-width="3.2"/>
<circle clip-path="url(#clip272)" cx="1339.16" cy="446.552" r="7.2" fill="#009af9" fill-rule="evenodd" fill-opacity="1" stroke="#000000" stroke-opacity="1" stroke-width="3.2"/>
<circle clip-path="url(#clip272)" cx="1309.59" cy="529.814" r="7.2" fill="#009af9" fill-rule="evenodd" fill-opacity="1" stroke="#000000" stroke-opacity="1" stroke-width="3.2"/>
<circle clip-path="url(#clip272)" cx="1304.86" cy="522.509" r="7.2" fill="#009af9" fill-rule="evenodd" fill-opacity="1" stroke="#000000" stroke-opacity="1" stroke-width="3.2"/>
<circle clip-path="url(#clip272)" cx="1266.33" cy="537.035" r="7.2" fill="#009af9" fill-rule="evenodd" fill-opacity="1" stroke="#000000" stroke-opacity="1" stroke-width="3.2"/>
<circle clip-path="url(#clip272)" cx="1256.65" cy="531.181" r="7.2" fill="#009af9" fill-rule="evenodd" fill-opacity="1" stroke="#000000" stroke-opacity="1" stroke-width="3.2"/>
<circle clip-path="url(#clip272)" cx="1284.07" cy="637.642" r="7.2" fill="#009af9" fill-rule="evenodd" fill-opacity="1" stroke="#000000" stroke-opacity="1" stroke-width="3.2"/>
<circle clip-path="url(#clip272)" cx="1267.78" cy="634.611" r="7.2" fill="#009af9" fill-rule="evenodd" fill-opacity="1" stroke="#000000" stroke-opacity="1" stroke-width="3.2"/>
<circle clip-path="url(#clip272)" cx="1265.9" cy="597.288" r="7.2" fill="#009af9" fill-rule="evenodd" fill-opacity="1" stroke="#000000" stroke-opacity="1" stroke-width="3.2"/>
<circle clip-path="url(#clip272)" cx="1225.29" cy="611.48" r="7.2" fill="#009af9" fill-rule="evenodd" fill-opacity="1" stroke="#000000" stroke-opacity="1" stroke-width="3.2"/>
<circle clip-path="url(#clip272)" cx="1189.46" cy="601.036" r="7.2" fill="#009af9" fill-rule="evenodd" fill-opacity="1" stroke="#000000" stroke-opacity="1" stroke-width="3.2"/>
<circle clip-path="url(#clip272)" cx="1217.87" cy="525.102" r="7.2" fill="#009af9" fill-rule="evenodd" fill-opacity="1" stroke="#000000" stroke-opacity="1" stroke-width="3.2"/>
<circle clip-path="url(#clip272)" cx="1190.59" cy="582.698" r="7.2" fill="#009af9" fill-rule="evenodd" fill-opacity="1" stroke="#000000" stroke-opacity="1" stroke-width="3.2"/>
<circle clip-path="url(#clip272)" cx="1178.33" cy="643.398" r="7.2" fill="#009af9" fill-rule="evenodd" fill-opacity="1" stroke="#000000" stroke-opacity="1" stroke-width="3.2"/>
<circle clip-path="url(#clip272)" cx="1146.7" cy="626.623" r="7.2" fill="#009af9" fill-rule="evenodd" fill-opacity="1" stroke="#000000" stroke-opacity="1" stroke-width="3.2"/>
<circle clip-path="url(#clip272)" cx="1134.67" cy="616.625" r="7.2" fill="#009af9" fill-rule="evenodd" fill-opacity="1" stroke="#000000" stroke-opacity="1" stroke-width="3.2"/>
<circle clip-path="url(#clip272)" cx="1093.01" cy="573.437" r="7.2" fill="#009af9" fill-rule="evenodd" fill-opacity="1" stroke="#000000" stroke-opacity="1" stroke-width="3.2"/>
<circle clip-path="url(#clip272)" cx="1068.09" cy="562.765" r="7.2" fill="#009af9" fill-rule="evenodd" fill-opacity="1" stroke="#000000" stroke-opacity="1" stroke-width="3.2"/>
<circle clip-path="url(#clip272)" cx="1031.47" cy="604.434" r="7.2" fill="#009af9" fill-rule="evenodd" fill-opacity="1" stroke="#000000" stroke-opacity="1" stroke-width="3.2"/>
<circle clip-path="url(#clip272)" cx="1050.5" cy="588.257" r="7.2" fill="#009af9" fill-rule="evenodd" fill-opacity="1" stroke="#000000" stroke-opacity="1" stroke-width="3.2"/>
<circle clip-path="url(#clip272)" cx="996.167" cy="566.955" r="7.2" fill="#009af9" fill-rule="evenodd" fill-opacity="1" stroke="#000000" stroke-opacity="1" stroke-width="3.2"/>
<circle clip-path="url(#clip272)" cx="1061.08" cy="602.259" r="7.2" fill="#009af9" fill-rule="evenodd" fill-opacity="1" stroke="#000000" stroke-opacity="1" stroke-width="3.2"/>
<circle clip-path="url(#clip272)" cx="987.238" cy="641.597" r="7.2" fill="#009af9" fill-rule="evenodd" fill-opacity="1" stroke="#000000" stroke-opacity="1" stroke-width="3.2"/>
<circle clip-path="url(#clip272)" cx="935.458" cy="604.075" r="7.2" fill="#009af9" fill-rule="evenodd" fill-opacity="1" stroke="#000000" stroke-opacity="1" stroke-width="3.2"/>
<circle clip-path="url(#clip272)" cx="939.922" cy="607.326" r="7.2" fill="#009af9" fill-rule="evenodd" fill-opacity="1" stroke="#000000" stroke-opacity="1" stroke-width="3.2"/>
<circle clip-path="url(#clip272)" cx="863.809" cy="674.041" r="7.2" fill="#009af9" fill-rule="evenodd" fill-opacity="1" stroke="#000000" stroke-opacity="1" stroke-width="3.2"/>
<circle clip-path="url(#clip272)" cx="877.096" cy="588.427" r="7.2" fill="#009af9" fill-rule="evenodd" fill-opacity="1" stroke="#000000" stroke-opacity="1" stroke-width="3.2"/>
<circle clip-path="url(#clip272)" cx="835.803" cy="639.722" r="7.2" fill="#009af9" fill-rule="evenodd" fill-opacity="1" stroke="#000000" stroke-opacity="1" stroke-width="3.2"/>
<circle clip-path="url(#clip272)" cx="798.118" cy="508.138" r="7.2" fill="#009af9" fill-rule="evenodd" fill-opacity="1" stroke="#000000" stroke-opacity="1" stroke-width="3.2"/>
<circle clip-path="url(#clip272)" cx="737.481" cy="653.887" r="7.2" fill="#009af9" fill-rule="evenodd" fill-opacity="1" stroke="#000000" stroke-opacity="1" stroke-width="3.2"/>
<circle clip-path="url(#clip272)" cx="813.45" cy="630.203" r="7.2" fill="#009af9" fill-rule="evenodd" fill-opacity="1" stroke="#000000" stroke-opacity="1" stroke-width="3.2"/>
<circle clip-path="url(#clip272)" cx="682.267" cy="524.035" r="7.2" fill="#009af9" fill-rule="evenodd" fill-opacity="1" stroke="#000000" stroke-opacity="1" stroke-width="3.2"/>
<circle clip-path="url(#clip272)" cx="707.411" cy="663.988" r="7.2" fill="#009af9" fill-rule="evenodd" fill-opacity="1" stroke="#000000" stroke-opacity="1" stroke-width="3.2"/>
<circle clip-path="url(#clip272)" cx="630.294" cy="578.067" r="7.2" fill="#009af9" fill-rule="evenodd" fill-opacity="1" stroke="#000000" stroke-opacity="1" stroke-width="3.2"/>
<circle clip-path="url(#clip272)" cx="613.63" cy="682.995" r="7.2" fill="#009af9" fill-rule="evenodd" fill-opacity="1" stroke="#000000" stroke-opacity="1" stroke-width="3.2"/>
<circle clip-path="url(#clip272)" cx="595.177" cy="665.351" r="7.2" fill="#009af9" fill-rule="evenodd" fill-opacity="1" stroke="#000000" stroke-opacity="1" stroke-width="3.2"/>
<circle clip-path="url(#clip272)" cx="553.153" cy="667.464" r="7.2" fill="#009af9" fill-rule="evenodd" fill-opacity="1" stroke="#000000" stroke-opacity="1" stroke-width="3.2"/>
<circle clip-path="url(#clip272)" cx="554.737" cy="559.477" r="7.2" fill="#009af9" fill-rule="evenodd" fill-opacity="1" stroke="#000000" stroke-opacity="1" stroke-width="3.2"/>
<circle clip-path="url(#clip272)" cx="485.029" cy="728.315" r="7.2" fill="#009af9" fill-rule="evenodd" fill-opacity="1" stroke="#000000" stroke-opacity="1" stroke-width="3.2"/>
<circle clip-path="url(#clip272)" cx="476.354" cy="669.143" r="7.2" fill="#009af9" fill-rule="evenodd" fill-opacity="1" stroke="#000000" stroke-opacity="1" stroke-width="3.2"/>
<circle clip-path="url(#clip272)" cx="491.591" cy="688.414" r="7.2" fill="#009af9" fill-rule="evenodd" fill-opacity="1" stroke="#000000" stroke-opacity="1" stroke-width="3.2"/>
<circle clip-path="url(#clip272)" cx="445.251" cy="742.051" r="7.2" fill="#009af9" fill-rule="evenodd" fill-opacity="1" stroke="#000000" stroke-opacity="1" stroke-width="3.2"/>
<circle clip-path="url(#clip272)" cx="481.502" cy="715.381" r="7.2" fill="#009af9" fill-rule="evenodd" fill-opacity="1" stroke="#000000" stroke-opacity="1" stroke-width="3.2"/>
<circle clip-path="url(#clip272)" cx="474.837" cy="730.861" r="7.2" fill="#009af9" fill-rule="evenodd" fill-opacity="1" stroke="#000000" stroke-opacity="1" stroke-width="3.2"/>
<circle clip-path="url(#clip272)" cx="424.66" cy="704.122" r="7.2" fill="#009af9" fill-rule="evenodd" fill-opacity="1" stroke="#000000" stroke-opacity="1" stroke-width="3.2"/>
<circle clip-path="url(#clip272)" cx="409.742" cy="638.477" r="7.2" fill="#009af9" fill-rule="evenodd" fill-opacity="1" stroke="#000000" stroke-opacity="1" stroke-width="3.2"/>
<circle clip-path="url(#clip272)" cx="470.352" cy="728.266" r="7.2" fill="#009af9" fill-rule="evenodd" fill-opacity="1" stroke="#000000" stroke-opacity="1" stroke-width="3.2"/>
<circle clip-path="url(#clip272)" cx="446.532" cy="788.654" r="7.2" fill="#009af9" fill-rule="evenodd" fill-opacity="1" stroke="#000000" stroke-opacity="1" stroke-width="3.2"/>
<circle clip-path="url(#clip272)" cx="368.111" cy="730.883" r="7.2" fill="#009af9" fill-rule="evenodd" fill-opacity="1" stroke="#000000" stroke-opacity="1" stroke-width="3.2"/>
<circle clip-path="url(#clip272)" cx="411.852" cy="714.467" r="7.2" fill="#009af9" fill-rule="evenodd" fill-opacity="1" stroke="#000000" stroke-opacity="1" stroke-width="3.2"/>
<circle clip-path="url(#clip272)" cx="394.347" cy="753.356" r="7.2" fill="#009af9" fill-rule="evenodd" fill-opacity="1" stroke="#000000" stroke-opacity="1" stroke-width="3.2"/>
<circle clip-path="url(#clip272)" cx="351.887" cy="774.592" r="7.2" fill="#009af9" fill-rule="evenodd" fill-opacity="1" stroke="#000000" stroke-opacity="1" stroke-width="3.2"/>
<circle clip-path="url(#clip272)" cx="383.028" cy="884.179" r="7.2" fill="#009af9" fill-rule="evenodd" fill-opacity="1" stroke="#000000" stroke-opacity="1" stroke-width="3.2"/>
<circle clip-path="url(#clip272)" cx="340.999" cy="753.703" r="7.2" fill="#009af9" fill-rule="evenodd" fill-opacity="1" stroke="#000000" stroke-opacity="1" stroke-width="3.2"/>
<circle clip-path="url(#clip272)" cx="326.062" cy="867.282" r="7.2" fill="#009af9" fill-rule="evenodd" fill-opacity="1" stroke="#000000" stroke-opacity="1" stroke-width="3.2"/>
<circle clip-path="url(#clip272)" cx="292.669" cy="852.662" r="7.2" fill="#009af9" fill-rule="evenodd" fill-opacity="1" stroke="#000000" stroke-opacity="1" stroke-width="3.2"/>
<circle clip-path="url(#clip272)" cx="305.412" cy="844.129" r="7.2" fill="#009af9" fill-rule="evenodd" fill-opacity="1" stroke="#000000" stroke-opacity="1" stroke-width="3.2"/>
<circle clip-path="url(#clip272)" cx="275.667" cy="970.477" r="7.2" fill="#009af9" fill-rule="evenodd" fill-opacity="1" stroke="#000000" stroke-opacity="1" stroke-width="3.2"/>
<circle clip-path="url(#clip272)" cx="239.216" cy="881.538" r="7.2" fill="#009af9" fill-rule="evenodd" fill-opacity="1" stroke="#000000" stroke-opacity="1" stroke-width="3.2"/>
<circle clip-path="url(#clip272)" cx="302.945" cy="830.826" r="7.2" fill="#009af9" fill-rule="evenodd" fill-opacity="1" stroke="#000000" stroke-opacity="1" stroke-width="3.2"/>
<circle clip-path="url(#clip272)" cx="301.653" cy="921.048" r="7.2" fill="#009af9" fill-rule="evenodd" fill-opacity="1" stroke="#000000" stroke-opacity="1" stroke-width="3.2"/>
<circle clip-path="url(#clip272)" cx="325.006" cy="944.848" r="7.2" fill="#009af9" fill-rule="evenodd" fill-opacity="1" stroke="#000000" stroke-opacity="1" stroke-width="3.2"/>
<circle clip-path="url(#clip272)" cx="295.202" cy="1004.23" r="7.2" fill="#009af9" fill-rule="evenodd" fill-opacity="1" stroke="#000000" stroke-opacity="1" stroke-width="3.2"/>
<circle clip-path="url(#clip272)" cx="254.976" cy="1014.07" r="7.2" fill="#009af9" fill-rule="evenodd" fill-opacity="1" stroke="#000000" stroke-opacity="1" stroke-width="3.2"/>
<circle clip-path="url(#clip272)" cx="297.583" cy="954.42" r="7.2" fill="#009af9" fill-rule="evenodd" fill-opacity="1" stroke="#000000" stroke-opacity="1" stroke-width="3.2"/>
<circle clip-path="url(#clip272)" cx="318.204" cy="941.584" r="7.2" fill="#009af9" fill-rule="evenodd" fill-opacity="1" stroke="#000000" stroke-opacity="1" stroke-width="3.2"/>
<circle clip-path="url(#clip272)" cx="287.17" cy="1115.51" r="7.2" fill="#009af9" fill-rule="evenodd" fill-opacity="1" stroke="#000000" stroke-opacity="1" stroke-width="3.2"/>
<circle clip-path="url(#clip272)" cx="256.078" cy="1037.22" r="7.2" fill="#009af9" fill-rule="evenodd" fill-opacity="1" stroke="#000000" stroke-opacity="1" stroke-width="3.2"/>
<circle clip-path="url(#clip272)" cx="283.713" cy="1036.31" r="7.2" fill="#009af9" fill-rule="evenodd" fill-opacity="1" stroke="#000000" stroke-opacity="1" stroke-width="3.2"/>
<circle clip-path="url(#clip272)" cx="277.638" cy="1049.87" r="7.2" fill="#009af9" fill-rule="evenodd" fill-opacity="1" stroke="#000000" stroke-opacity="1" stroke-width="3.2"/>
<circle clip-path="url(#clip272)" cx="263.353" cy="1151.94" r="7.2" fill="#009af9" fill-rule="evenodd" fill-opacity="1" stroke="#000000" stroke-opacity="1" stroke-width="3.2"/>
<circle clip-path="url(#clip272)" cx="284.84" cy="1110.04" r="7.2" fill="#009af9" fill-rule="evenodd" fill-opacity="1" stroke="#000000" stroke-opacity="1" stroke-width="3.2"/>
<circle clip-path="url(#clip272)" cx="235.487" cy="1168.22" r="7.2" fill="#009af9" fill-rule="evenodd" fill-opacity="1" stroke="#000000" stroke-opacity="1" stroke-width="3.2"/>
<circle clip-path="url(#clip272)" cx="247.194" cy="1066.48" r="7.2" fill="#009af9" fill-rule="evenodd" fill-opacity="1" stroke="#000000" stroke-opacity="1" stroke-width="3.2"/>
<circle clip-path="url(#clip272)" cx="283.966" cy="1063.26" r="7.2" fill="#009af9" fill-rule="evenodd" fill-opacity="1" stroke="#000000" stroke-opacity="1" stroke-width="3.2"/>
<circle clip-path="url(#clip272)" cx="333.916" cy="1150.66" r="7.2" fill="#009af9" fill-rule="evenodd" fill-opacity="1" stroke="#000000" stroke-opacity="1" stroke-width="3.2"/>
<circle clip-path="url(#clip272)" cx="336.237" cy="1154.81" r="7.2" fill="#009af9" fill-rule="evenodd" fill-opacity="1" stroke="#000000" stroke-opacity="1" stroke-width="3.2"/>
<circle clip-path="url(#clip272)" cx="290.173" cy="1218.73" r="7.2" fill="#009af9" fill-rule="evenodd" fill-opacity="1" stroke="#000000" stroke-opacity="1" stroke-width="3.2"/>
<circle clip-path="url(#clip272)" cx="306.036" cy="1199.75" r="7.2" fill="#009af9" fill-rule="evenodd" fill-opacity="1" stroke="#000000" stroke-opacity="1" stroke-width="3.2"/>
<circle clip-path="url(#clip272)" cx="323.171" cy="1290.5" r="7.2" fill="#009af9" fill-rule="evenodd" fill-opacity="1" stroke="#000000" stroke-opacity="1" stroke-width="3.2"/>
<circle clip-path="url(#clip272)" cx="256.182" cy="1349.74" r="7.2" fill="#009af9" fill-rule="evenodd" fill-opacity="1" stroke="#000000" stroke-opacity="1" stroke-width="3.2"/>
<circle clip-path="url(#clip272)" cx="211.556" cy="1280.73" r="7.2" fill="#009af9" fill-rule="evenodd" fill-opacity="1" stroke="#000000" stroke-opacity="1" stroke-width="3.2"/>
<circle clip-path="url(#clip272)" cx="289.838" cy="1273.83" r="7.2" fill="#009af9" fill-rule="evenodd" fill-opacity="1" stroke="#000000" stroke-opacity="1" stroke-width="3.2"/>
<circle clip-path="url(#clip272)" cx="288.283" cy="1376.99" r="7.2" fill="#009af9" fill-rule="evenodd" fill-opacity="1" stroke="#000000" stroke-opacity="1" stroke-width="3.2"/>
<circle clip-path="url(#clip272)" cx="269.575" cy="1435.36" r="7.2" fill="#009af9" fill-rule="evenodd" fill-opacity="1" stroke="#000000" stroke-opacity="1" stroke-width="3.2"/>
<circle clip-path="url(#clip272)" cx="266.952" cy="1350.87" r="7.2" fill="#009af9" fill-rule="evenodd" fill-opacity="1" stroke="#000000" stroke-opacity="1" stroke-width="3.2"/>
<circle clip-path="url(#clip272)" cx="264.616" cy="1389.08" r="7.2" fill="#009af9" fill-rule="evenodd" fill-opacity="1" stroke="#000000" stroke-opacity="1" stroke-width="3.2"/>
<circle clip-path="url(#clip272)" cx="264.851" cy="1445.72" r="7.2" fill="#009af9" fill-rule="evenodd" fill-opacity="1" stroke="#000000" stroke-opacity="1" stroke-width="3.2"/>
<circle clip-path="url(#clip272)" cx="314.719" cy="1440.54" r="7.2" fill="#009af9" fill-rule="evenodd" fill-opacity="1" stroke="#000000" stroke-opacity="1" stroke-width="3.2"/>
<polyline clip-path="url(#clip272)" style="stroke:#e26f46; stroke-linecap:butt; stroke-linejoin:round; stroke-width:16; stroke-opacity:0.8; fill:none" points="
  2234.52,594.153 2234.46,596.821 2235.73,601.616 2237.97,607.914 2238.54,614.849 2239.08,618.395 2239.8,620.21 2240.3,621.513 2239.42,623.464 2238.7,627.015 
  2237.86,627.847 2236.21,628.628 2234.55,627.494 2229.99,625.481 2226.36,624.992 2225.82,623.674 2228.28,618.103 2230.12,608.269 2231.86,596.049 2234.06,586.525 
  2236.07,577.29 2238.4,563.269 2240.64,548.742 2241.19,533.279 2236.25,518.855 2230.32,505.12 2226.64,490.368 2224.1,475.8 2220.78,460.603 2218.35,447.886 
  2215.05,437.078 2211.68,423.257 2207.48,406.777 2202.33,388.865 2197.66,372.926 2192.13,354.467 2188.16,337.078 2182.77,318.747 2175.08,302.4 2169.7,289.707 
  2163.77,278.814 2159.18,265.629 2153.82,255.693 2145.92,245.749 2137.41,236.289 2126.38,224.562 2113.16,211.708 2100.31,198.692 2087.71,188.892 2076.5,179.823 
  2063.46,170.128 2047.3,162.483 2030.12,155.945 2013.23,151.711 1999.28,149.915 1985.49,150.528 1974.58,153.884 1964.26,155.95 1954.67,158.765 1945.83,164.02 
  1935.95,168.106 1928.09,170.083 1923.12,174.544 1921.14,176.626 1919.6,180.33 1920.22,185.14 1920.55,188.641 1920.22,196.625 1916.05,202.121 1911.49,207.413 
  1905.95,213.029 1900.54,221.375 1894.09,231.162 1885.21,241.396 1876.16,247.854 1869.3,251.108 1863.61,253.76 1858.3,256.581 1851.58,259.332 1842.95,265.179 
  1834.22,273.264 1826.43,282.718 1818.18,291.874 1808.95,303.847 1800.1,314.969 1788.53,325.726 1773.59,335.137 1758.59,342.545 1742.84,347.915 1725.41,353.17 
  1705.19,362.077 1684.41,373.537 1664.08,386.221 1643.82,400.334 1624.84,414.22 1606.14,423.338 1587.61,431.869 1570.27,443.182 1552.24,454.359 1534.5,462.552 
  1519.49,470.502 1505.24,475.314 1487.64,478.654 1470.25,484.088 1453.92,490.38 1438.57,496.578 1423.3,499.935 1407.35,502.735 1392.17,506.434 1376.25,511.821 
  1360.98,521.16 1345.79,530.732 1331.71,536.873 1319.89,538.77 1309.28,539.575 1300.99,545.148 1290.06,553.272 1277.92,559.665 1265.48,565.873 1253.91,571.745 
  1243.02,576.194 1230.17,580.556 1216.22,584.572 1202.21,590.007 1186.23,595.71 1167.15,601.939 1147.86,606.841 1130.33,607.057 1111.05,608.43 1090.98,609.376 
  1071.21,607.541 1050.5,605.638 1026.88,605.624 1001.56,604.529 974.018,603.901 944.217,603.858 914.908,604.615 882.973,604.417 852.662,606.528 821.9,609.788 
  790.482,612.804 759.501,618.04 728.16,619.299 697.883,618.407 669.301,619.697 640.851,620.873 615.163,621.111 593.349,624.695 573.355,631.841 555.096,642.45 
  537.058,654.804 520.751,666.807 503.996,680.054 487.44,691.517 471.835,700.408 455.39,707.419 440.067,715.591 427.395,721.695 415.865,729.907 402.747,741.406 
  390.57,749.635 379.538,760.517 368.762,774.295 358.925,786.992 349,795.397 339.789,805.047 331.2,814.315 322.685,827.156 313.729,842.261 305.626,856.679 
  297.756,874.712 290.617,892.522 284.056,907.37 277.442,922.577 271.732,937.97 266.444,955.277 262.408,974.615 259.527,992.736 257.829,1010.64 257.47,1029.83 
  257.969,1047.76 258.594,1066.75 260.921,1089.51 263.48,1115.38 267.829,1140.86 272.651,1165.34 277.066,1186.66 281.209,1209.01 286.812,1231 290.611,1249.12 
  292.671,1264.32 291.925,1278.41 291.171,1293.25 290.26,1309.4 290.635,1322.39 292.858,1331.5 294.775,1344.47 295.473,1357.56 296.415,1372.42 294.611,1389.15 
  292.901,1408.34 
  "/>
<path clip-path="url(#clip270)" d="
M1691.27 302.578 L2279.3 302.578 L2279.3 95.2176 L1691.27 95.2176  Z
  " fill="#ffffff" fill-rule="evenodd" fill-opacity="1"/>
<polyline clip-path="url(#clip270)" style="stroke:#000000; stroke-linecap:butt; stroke-linejoin:round; stroke-width:4; stroke-opacity:1; fill:none" points="
  1691.27,302.578 2279.3,302.578 2279.3,95.2176 1691.27,95.2176 1691.27,302.578 
  "/>
<circle clip-path="url(#clip270)" cx="1789.21" cy="147.058" r="23.04" fill="#009af9" fill-rule="evenodd" fill-opacity="1" stroke="#000000" stroke-opacity="1" stroke-width="10.24"/>
<path clip-path="url(#clip270)" d="M1887.14 129.778 L1894.11 129.778 L1902.93 153.296 L1911.8 129.778 L1918.76 129.778 L1918.76 164.338 L1914.2 164.338 L1914.2 133.99 L1905.29 157.694 L1900.59 157.694 L1891.68 133.99 L1891.68 164.338 L1887.14 164.338 L1887.14 129.778 Z" fill="#000000" fill-rule="evenodd" fill-opacity="1" /><path clip-path="url(#clip270)" d="M1950.04 150.31 L1950.04 152.393 L1930.45 152.393 Q1930.73 156.791 1933.09 159.106 Q1935.48 161.398 1939.71 161.398 Q1942.17 161.398 1944.46 160.796 Q1946.77 160.194 1949.04 158.99 L1949.04 163.018 Q1946.75 163.99 1944.34 164.5 Q1941.93 165.009 1939.46 165.009 Q1933.25 165.009 1929.62 161.398 Q1926.01 157.787 1926.01 151.629 Q1926.01 145.264 1929.43 141.537 Q1932.88 137.787 1938.72 137.787 Q1943.95 137.787 1946.98 141.166 Q1950.04 144.523 1950.04 150.31 M1945.78 149.06 Q1945.73 145.565 1943.81 143.481 Q1941.91 141.398 1938.76 141.398 Q1935.2 141.398 1933.05 143.412 Q1930.92 145.426 1930.59 149.083 L1945.78 149.06 Z" fill="#000000" fill-rule="evenodd" fill-opacity="1" /><path clip-path="url(#clip270)" d="M1968.81 151.305 Q1963.65 151.305 1961.66 152.486 Q1959.67 153.666 1959.67 156.514 Q1959.67 158.782 1961.15 160.125 Q1962.65 161.444 1965.22 161.444 Q1968.76 161.444 1970.89 158.944 Q1973.05 156.421 1973.05 152.254 L1973.05 151.305 L1968.81 151.305 M1977.3 149.546 L1977.3 164.338 L1973.05 164.338 L1973.05 160.402 Q1971.59 162.763 1969.41 163.898 Q1967.24 165.009 1964.09 165.009 Q1960.11 165.009 1957.74 162.787 Q1955.41 160.541 1955.41 156.791 Q1955.41 152.416 1958.32 150.194 Q1961.26 147.972 1967.07 147.972 L1973.05 147.972 L1973.05 147.555 Q1973.05 144.615 1971.1 143.018 Q1969.18 141.398 1965.68 141.398 Q1963.46 141.398 1961.36 141.93 Q1959.25 142.463 1957.3 143.527 L1957.3 139.592 Q1959.64 138.69 1961.84 138.25 Q1964.04 137.787 1966.12 137.787 Q1971.75 137.787 1974.53 140.703 Q1977.3 143.62 1977.3 149.546 Z" fill="#000000" fill-rule="evenodd" fill-opacity="1" /><path clip-path="url(#clip270)" d="M2002.61 139.176 L2002.61 143.203 Q2000.8 142.277 1998.86 141.815 Q1996.91 141.352 1994.83 141.352 Q1991.66 141.352 1990.06 142.324 Q1988.49 143.296 1988.49 145.24 Q1988.49 146.722 1989.62 147.578 Q1990.75 148.412 1994.18 149.176 L1995.64 149.5 Q2000.17 150.472 2002.07 152.254 Q2003.99 154.014 2003.99 157.185 Q2003.99 160.796 2001.12 162.902 Q1998.28 165.009 1993.28 165.009 Q1991.19 165.009 1988.92 164.592 Q1986.68 164.199 1984.18 163.388 L1984.18 158.99 Q1986.54 160.217 1988.83 160.842 Q1991.12 161.444 1993.37 161.444 Q1996.38 161.444 1998 160.426 Q1999.62 159.384 1999.62 157.509 Q1999.62 155.773 1998.44 154.847 Q1997.28 153.921 1993.32 153.064 L1991.84 152.717 Q1987.88 151.884 1986.12 150.171 Q1984.36 148.435 1984.36 145.426 Q1984.36 141.768 1986.96 139.778 Q1989.55 137.787 1994.32 137.787 Q1996.68 137.787 1998.76 138.134 Q2000.85 138.481 2002.61 139.176 Z" fill="#000000" fill-rule="evenodd" fill-opacity="1" /><path clip-path="url(#clip270)" d="M2010.34 154.106 L2010.34 138.412 L2014.6 138.412 L2014.6 153.944 Q2014.6 157.625 2016.03 159.476 Q2017.47 161.305 2020.34 161.305 Q2023.79 161.305 2025.78 159.106 Q2027.79 156.907 2027.79 153.111 L2027.79 138.412 L2032.05 138.412 L2032.05 164.338 L2027.79 164.338 L2027.79 160.356 Q2026.24 162.717 2024.18 163.875 Q2022.14 165.009 2019.43 165.009 Q2014.97 165.009 2012.65 162.231 Q2010.34 159.453 2010.34 154.106 M2021.05 137.787 L2021.05 137.787 Z" fill="#000000" fill-rule="evenodd" fill-opacity="1" /><path clip-path="url(#clip270)" d="M2055.85 142.393 Q2055.13 141.977 2054.27 141.791 Q2053.44 141.583 2052.42 141.583 Q2048.81 141.583 2046.86 143.944 Q2044.94 146.282 2044.94 150.68 L2044.94 164.338 L2040.66 164.338 L2040.66 138.412 L2044.94 138.412 L2044.94 142.44 Q2046.29 140.078 2048.44 138.944 Q2050.59 137.787 2053.67 137.787 Q2054.11 137.787 2054.64 137.856 Q2055.17 137.903 2055.82 138.018 L2055.85 142.393 Z" fill="#000000" fill-rule="evenodd" fill-opacity="1" /><path clip-path="url(#clip270)" d="M2081.45 150.31 L2081.45 152.393 L2061.86 152.393 Q2062.14 156.791 2064.5 159.106 Q2066.89 161.398 2071.12 161.398 Q2073.58 161.398 2075.87 160.796 Q2078.18 160.194 2080.45 158.99 L2080.45 163.018 Q2078.16 163.99 2075.75 164.5 Q2073.35 165.009 2070.87 165.009 Q2064.67 165.009 2061.03 161.398 Q2057.42 157.787 2057.42 151.629 Q2057.42 145.264 2060.85 141.537 Q2064.29 137.787 2070.13 137.787 Q2075.36 137.787 2078.39 141.166 Q2081.45 144.523 2081.45 150.31 M2077.19 149.06 Q2077.14 145.565 2075.22 143.481 Q2073.32 141.398 2070.17 141.398 Q2066.61 141.398 2064.46 143.412 Q2062.33 145.426 2062 149.083 L2077.19 149.06 Z" fill="#000000" fill-rule="evenodd" fill-opacity="1" /><path clip-path="url(#clip270)" d="M2108.62 143.389 Q2110.22 140.518 2112.44 139.153 Q2114.66 137.787 2117.67 137.787 Q2121.73 137.787 2123.92 140.634 Q2126.12 143.458 2126.12 148.689 L2126.12 164.338 L2121.84 164.338 L2121.84 148.828 Q2121.84 145.102 2120.52 143.296 Q2119.2 141.49 2116.49 141.49 Q2113.18 141.49 2111.26 143.69 Q2109.34 145.889 2109.34 149.685 L2109.34 164.338 L2105.06 164.338 L2105.06 148.828 Q2105.06 145.078 2103.74 143.296 Q2102.42 141.49 2099.67 141.49 Q2096.4 141.49 2094.48 143.713 Q2092.56 145.912 2092.56 149.685 L2092.56 164.338 L2088.28 164.338 L2088.28 138.412 L2092.56 138.412 L2092.56 142.44 Q2094.02 140.055 2096.05 138.921 Q2098.09 137.787 2100.89 137.787 Q2103.72 137.787 2105.68 139.222 Q2107.67 140.657 2108.62 143.389 Z" fill="#000000" fill-rule="evenodd" fill-opacity="1" /><path clip-path="url(#clip270)" d="M2156.79 150.31 L2156.79 152.393 L2137.21 152.393 Q2137.49 156.791 2139.85 159.106 Q2142.23 161.398 2146.47 161.398 Q2148.92 161.398 2151.22 160.796 Q2153.53 160.194 2155.8 158.99 L2155.8 163.018 Q2153.51 163.99 2151.1 164.5 Q2148.69 165.009 2146.22 165.009 Q2140.01 165.009 2136.38 161.398 Q2132.77 157.787 2132.77 151.629 Q2132.77 145.264 2136.19 141.537 Q2139.64 137.787 2145.47 137.787 Q2150.71 137.787 2153.74 141.166 Q2156.79 144.523 2156.79 150.31 M2152.54 149.06 Q2152.49 145.565 2150.57 143.481 Q2148.67 141.398 2145.52 141.398 Q2141.96 141.398 2139.8 143.412 Q2137.67 145.426 2137.35 149.083 L2152.54 149.06 Z" fill="#000000" fill-rule="evenodd" fill-opacity="1" /><path clip-path="url(#clip270)" d="M2185.34 148.689 L2185.34 164.338 L2181.08 164.338 L2181.08 148.828 Q2181.08 145.148 2179.64 143.319 Q2178.21 141.49 2175.34 141.49 Q2171.89 141.49 2169.9 143.69 Q2167.91 145.889 2167.91 149.685 L2167.91 164.338 L2163.62 164.338 L2163.62 138.412 L2167.91 138.412 L2167.91 142.44 Q2169.43 140.102 2171.49 138.944 Q2173.58 137.787 2176.28 137.787 Q2180.75 137.787 2183.04 140.565 Q2185.34 143.319 2185.34 148.689 Z" fill="#000000" fill-rule="evenodd" fill-opacity="1" /><path clip-path="url(#clip270)" d="M2198.04 131.051 L2198.04 138.412 L2206.82 138.412 L2206.82 141.722 L2198.04 141.722 L2198.04 155.796 Q2198.04 158.967 2198.9 159.87 Q2199.78 160.773 2202.44 160.773 L2206.82 160.773 L2206.82 164.338 L2202.44 164.338 Q2197.51 164.338 2195.64 162.509 Q2193.76 160.657 2193.76 155.796 L2193.76 141.722 L2190.64 141.722 L2190.64 138.412 L2193.76 138.412 L2193.76 131.051 L2198.04 131.051 Z" fill="#000000" fill-rule="evenodd" fill-opacity="1" /><path clip-path="url(#clip270)" d="M2228.95 139.176 L2228.95 143.203 Q2227.14 142.277 2225.2 141.815 Q2223.25 141.352 2221.17 141.352 Q2218 141.352 2216.4 142.324 Q2214.83 143.296 2214.83 145.24 Q2214.83 146.722 2215.96 147.578 Q2217.09 148.412 2220.52 149.176 L2221.98 149.5 Q2226.52 150.472 2228.41 152.254 Q2230.34 154.014 2230.34 157.185 Q2230.34 160.796 2227.47 162.902 Q2224.62 165.009 2219.62 165.009 Q2217.53 165.009 2215.27 164.592 Q2213.02 164.199 2210.52 163.388 L2210.52 158.99 Q2212.88 160.217 2215.17 160.842 Q2217.47 161.444 2219.71 161.444 Q2222.72 161.444 2224.34 160.426 Q2225.96 159.384 2225.96 157.509 Q2225.96 155.773 2224.78 154.847 Q2223.62 153.921 2219.66 153.064 L2218.18 152.717 Q2214.22 151.884 2212.47 150.171 Q2210.71 148.435 2210.71 145.426 Q2210.71 141.768 2213.3 139.778 Q2215.89 137.787 2220.66 137.787 Q2223.02 137.787 2225.1 138.134 Q2227.19 138.481 2228.95 139.176 Z" fill="#000000" fill-rule="evenodd" fill-opacity="1" /><polyline clip-path="url(#clip270)" style="stroke:#e26f46; stroke-linecap:butt; stroke-linejoin:round; stroke-width:4; stroke-opacity:0.8; fill:none" points="
  1715.75,198.898 1862.66,198.898 
  "/>
<path clip-path="url(#clip270)" d="M1887.14 181.618 L1916.38 181.618 L1916.38 185.553 L1904.11 185.553 L1904.11 216.178 L1899.41 216.178 L1899.41 185.553 L1887.14 185.553 L1887.14 181.618 Z" fill="#000000" fill-rule="evenodd" fill-opacity="1" /><path clip-path="url(#clip270)" d="M1928.76 194.233 Q1928.05 193.817 1927.19 193.631 Q1926.36 193.423 1925.34 193.423 Q1921.73 193.423 1919.78 195.784 Q1917.86 198.122 1917.86 202.52 L1917.86 216.178 L1913.58 216.178 L1913.58 190.252 L1917.86 190.252 L1917.86 194.28 Q1919.2 191.918 1921.36 190.784 Q1923.51 189.627 1926.59 189.627 Q1927.03 189.627 1927.56 189.696 Q1928.09 189.743 1928.74 189.858 L1928.76 194.233 Z" fill="#000000" fill-rule="evenodd" fill-opacity="1" /><path clip-path="url(#clip270)" d="M1932.79 205.946 L1932.79 190.252 L1937.05 190.252 L1937.05 205.784 Q1937.05 209.465 1938.49 211.316 Q1939.92 213.145 1942.79 213.145 Q1946.24 213.145 1948.23 210.946 Q1950.24 208.747 1950.24 204.951 L1950.24 190.252 L1954.5 190.252 L1954.5 216.178 L1950.24 216.178 L1950.24 212.196 Q1948.69 214.557 1946.63 215.715 Q1944.6 216.849 1941.89 216.849 Q1937.42 216.849 1935.11 214.071 Q1932.79 211.293 1932.79 205.946 M1943.51 189.627 L1943.51 189.627 Z" fill="#000000" fill-rule="evenodd" fill-opacity="1" /><path clip-path="url(#clip270)" d="M1985.45 202.15 L1985.45 204.233 L1965.87 204.233 Q1966.15 208.631 1968.51 210.946 Q1970.89 213.238 1975.13 213.238 Q1977.58 213.238 1979.87 212.636 Q1982.19 212.034 1984.46 210.83 L1984.46 214.858 Q1982.17 215.83 1979.76 216.34 Q1977.35 216.849 1974.87 216.849 Q1968.67 216.849 1965.04 213.238 Q1961.43 209.627 1961.43 203.469 Q1961.43 197.104 1964.85 193.377 Q1968.3 189.627 1974.13 189.627 Q1979.36 189.627 1982.4 193.006 Q1985.45 196.363 1985.45 202.15 M1981.19 200.9 Q1981.15 197.405 1979.23 195.321 Q1977.33 193.238 1974.18 193.238 Q1970.61 193.238 1968.46 195.252 Q1966.33 197.266 1966.01 200.923 L1981.19 200.9 Z" fill="#000000" fill-rule="evenodd" fill-opacity="1" /><path clip-path="url(#clip270)" d="M2007.7 181.618 L2012.37 181.618 L2012.37 212.242 L2029.2 212.242 L2029.2 216.178 L2007.7 216.178 L2007.7 181.618 Z" fill="#000000" fill-rule="evenodd" fill-opacity="1" /><path clip-path="url(#clip270)" d="M2043.14 193.238 Q2039.71 193.238 2037.72 195.923 Q2035.73 198.585 2035.73 203.238 Q2035.73 207.891 2037.7 210.576 Q2039.69 213.238 2043.14 213.238 Q2046.54 213.238 2048.53 210.553 Q2050.52 207.867 2050.52 203.238 Q2050.52 198.631 2048.53 195.946 Q2046.54 193.238 2043.14 193.238 M2043.14 189.627 Q2048.69 189.627 2051.86 193.238 Q2055.04 196.849 2055.04 203.238 Q2055.04 209.604 2051.86 213.238 Q2048.69 216.849 2043.14 216.849 Q2037.56 216.849 2034.39 213.238 Q2031.24 209.604 2031.24 203.238 Q2031.24 196.849 2034.39 193.238 Q2037.56 189.627 2043.14 189.627 Z" fill="#000000" fill-rule="evenodd" fill-opacity="1" /><path clip-path="url(#clip270)" d="M2080.75 191.247 L2080.75 195.229 Q2078.95 194.233 2077.12 193.747 Q2075.31 193.238 2073.46 193.238 Q2069.32 193.238 2067.03 195.877 Q2064.73 198.492 2064.73 203.238 Q2064.73 207.983 2067.03 210.622 Q2069.32 213.238 2073.46 213.238 Q2075.31 213.238 2077.12 212.752 Q2078.95 212.242 2080.75 211.247 L2080.75 215.182 Q2078.97 216.016 2077.05 216.432 Q2075.15 216.849 2073 216.849 Q2067.14 216.849 2063.69 213.168 Q2060.24 209.488 2060.24 203.238 Q2060.24 196.895 2063.72 193.261 Q2067.21 189.627 2073.28 189.627 Q2075.24 189.627 2077.12 190.043 Q2078.99 190.437 2080.75 191.247 Z" fill="#000000" fill-rule="evenodd" fill-opacity="1" /><path clip-path="url(#clip270)" d="M2099.94 203.145 Q2094.78 203.145 2092.79 204.326 Q2090.8 205.506 2090.8 208.354 Q2090.8 210.622 2092.28 211.965 Q2093.79 213.284 2096.35 213.284 Q2099.9 213.284 2102.03 210.784 Q2104.18 208.261 2104.18 204.094 L2104.18 203.145 L2099.94 203.145 M2108.44 201.386 L2108.44 216.178 L2104.18 216.178 L2104.18 212.242 Q2102.72 214.603 2100.54 215.738 Q2098.37 216.849 2095.22 216.849 Q2091.24 216.849 2088.88 214.627 Q2086.54 212.381 2086.54 208.631 Q2086.54 204.256 2089.46 202.034 Q2092.4 199.812 2098.21 199.812 L2104.18 199.812 L2104.18 199.395 Q2104.18 196.455 2102.23 194.858 Q2100.31 193.238 2096.82 193.238 Q2094.6 193.238 2092.49 193.77 Q2090.38 194.303 2088.44 195.367 L2088.44 191.432 Q2090.78 190.53 2092.98 190.09 Q2095.17 189.627 2097.26 189.627 Q2102.88 189.627 2105.66 192.543 Q2108.44 195.46 2108.44 201.386 Z" fill="#000000" fill-rule="evenodd" fill-opacity="1" /><path clip-path="url(#clip270)" d="M2121.42 182.891 L2121.42 190.252 L2130.2 190.252 L2130.2 193.562 L2121.42 193.562 L2121.42 207.636 Q2121.42 210.807 2122.28 211.71 Q2123.16 212.613 2125.82 212.613 L2130.2 212.613 L2130.2 216.178 L2125.82 216.178 Q2120.89 216.178 2119.02 214.349 Q2117.14 212.497 2117.14 207.636 L2117.14 193.562 L2114.02 193.562 L2114.02 190.252 L2117.14 190.252 L2117.14 182.891 L2121.42 182.891 Z" fill="#000000" fill-rule="evenodd" fill-opacity="1" /><path clip-path="url(#clip270)" d="M2135.8 190.252 L2140.06 190.252 L2140.06 216.178 L2135.8 216.178 L2135.8 190.252 M2135.8 180.159 L2140.06 180.159 L2140.06 185.553 L2135.8 185.553 L2135.8 180.159 Z" fill="#000000" fill-rule="evenodd" fill-opacity="1" /><path clip-path="url(#clip270)" d="M2159.02 193.238 Q2155.59 193.238 2153.6 195.923 Q2151.61 198.585 2151.61 203.238 Q2151.61 207.891 2153.58 210.576 Q2155.57 213.238 2159.02 213.238 Q2162.42 213.238 2164.41 210.553 Q2166.4 207.867 2166.4 203.238 Q2166.4 198.631 2164.41 195.946 Q2162.42 193.238 2159.02 193.238 M2159.02 189.627 Q2164.57 189.627 2167.74 193.238 Q2170.91 196.849 2170.91 203.238 Q2170.91 209.604 2167.74 213.238 Q2164.57 216.849 2159.02 216.849 Q2153.44 216.849 2150.27 213.238 Q2147.12 209.604 2147.12 203.238 Q2147.12 196.849 2150.27 193.238 Q2153.44 189.627 2159.02 189.627 Z" fill="#000000" fill-rule="evenodd" fill-opacity="1" /><path clip-path="url(#clip270)" d="M2199.53 200.529 L2199.53 216.178 L2195.27 216.178 L2195.27 200.668 Q2195.27 196.988 2193.83 195.159 Q2192.4 193.33 2189.53 193.33 Q2186.08 193.33 2184.09 195.53 Q2182.1 197.729 2182.1 201.525 L2182.1 216.178 L2177.81 216.178 L2177.81 190.252 L2182.1 190.252 L2182.1 194.28 Q2183.62 191.942 2185.68 190.784 Q2187.77 189.627 2190.47 189.627 Q2194.94 189.627 2197.23 192.405 Q2199.53 195.159 2199.53 200.529 Z" fill="#000000" fill-rule="evenodd" fill-opacity="1" /><polyline clip-path="url(#clip270)" style="stroke:#3da44d; stroke-linecap:butt; stroke-linejoin:round; stroke-width:4; stroke-opacity:0.8; fill:none" points="
  1715.75,250.738 1862.66,250.738 
  "/>
<path clip-path="url(#clip270)" d="M1887.14 233.458 L1907 233.458 L1907 237.393 L1891.82 237.393 L1891.82 247.578 L1905.52 247.578 L1905.52 251.513 L1891.82 251.513 L1891.82 268.018 L1887.14 268.018 L1887.14 233.458 Z" fill="#000000" fill-rule="evenodd" fill-opacity="1" /><path clip-path="url(#clip270)" d="M1910.78 242.092 L1915.04 242.092 L1915.04 268.018 L1910.78 268.018 L1910.78 242.092 M1910.78 231.999 L1915.04 231.999 L1915.04 237.393 L1910.78 237.393 L1910.78 231.999 Z" fill="#000000" fill-rule="evenodd" fill-opacity="1" /><path clip-path="url(#clip270)" d="M1923.95 231.999 L1928.21 231.999 L1928.21 268.018 L1923.95 268.018 L1923.95 231.999 Z" fill="#000000" fill-rule="evenodd" fill-opacity="1" /><path clip-path="url(#clip270)" d="M1941.33 234.731 L1941.33 242.092 L1950.11 242.092 L1950.11 245.402 L1941.33 245.402 L1941.33 259.476 Q1941.33 262.647 1942.19 263.55 Q1943.07 264.453 1945.73 264.453 L1950.11 264.453 L1950.11 268.018 L1945.73 268.018 Q1940.8 268.018 1938.93 266.189 Q1937.05 264.337 1937.05 259.476 L1937.05 245.402 L1933.93 245.402 L1933.93 242.092 L1937.05 242.092 L1937.05 234.731 L1941.33 234.731 Z" fill="#000000" fill-rule="evenodd" fill-opacity="1" /><path clip-path="url(#clip270)" d="M1977.88 253.99 L1977.88 256.073 L1958.3 256.073 Q1958.58 260.471 1960.94 262.786 Q1963.32 265.078 1967.56 265.078 Q1970.01 265.078 1972.3 264.476 Q1974.62 263.874 1976.89 262.67 L1976.89 266.698 Q1974.6 267.67 1972.19 268.18 Q1969.78 268.689 1967.3 268.689 Q1961.1 268.689 1957.47 265.078 Q1953.86 261.467 1953.86 255.309 Q1953.86 248.944 1957.28 245.217 Q1960.73 241.467 1966.56 241.467 Q1971.8 241.467 1974.83 244.846 Q1977.88 248.203 1977.88 253.99 M1973.62 252.74 Q1973.58 249.245 1971.66 247.161 Q1969.76 245.078 1966.61 245.078 Q1963.05 245.078 1960.89 247.092 Q1958.76 249.106 1958.44 252.763 L1973.62 252.74 Z" fill="#000000" fill-rule="evenodd" fill-opacity="1" /><path clip-path="url(#clip270)" d="M1999.9 246.073 Q1999.18 245.657 1998.32 245.471 Q1997.49 245.263 1996.47 245.263 Q1992.86 245.263 1990.92 247.624 Q1988.99 249.962 1988.99 254.36 L1988.99 268.018 L1984.71 268.018 L1984.71 242.092 L1988.99 242.092 L1988.99 246.12 Q1990.34 243.758 1992.49 242.624 Q1994.64 241.467 1997.72 241.467 Q1998.16 241.467 1998.69 241.536 Q1999.23 241.583 1999.87 241.698 L1999.9 246.073 Z" fill="#000000" fill-rule="evenodd" fill-opacity="1" /><path clip-path="url(#clip270)" d="M2019.62 233.458 L2041.47 233.458 L2041.47 237.393 L2024.3 237.393 L2024.3 247.624 L2040.75 247.624 L2040.75 251.559 L2024.3 251.559 L2024.3 264.082 L2041.89 264.082 L2041.89 268.018 L2019.62 268.018 L2019.62 233.458 Z" fill="#000000" fill-rule="evenodd" fill-opacity="1" /><path clip-path="url(#clip270)" d="M2065.92 242.856 L2065.92 246.883 Q2064.11 245.957 2062.17 245.495 Q2060.22 245.032 2058.14 245.032 Q2054.97 245.032 2053.37 246.004 Q2051.79 246.976 2051.79 248.92 Q2051.79 250.402 2052.93 251.258 Q2054.06 252.092 2057.49 252.856 L2058.95 253.18 Q2063.48 254.152 2065.38 255.934 Q2067.3 257.694 2067.3 260.865 Q2067.3 264.476 2064.43 266.582 Q2061.59 268.689 2056.59 268.689 Q2054.5 268.689 2052.23 268.272 Q2049.99 267.879 2047.49 267.068 L2047.49 262.67 Q2049.85 263.897 2052.14 264.522 Q2054.43 265.124 2056.68 265.124 Q2059.69 265.124 2061.31 264.106 Q2062.93 263.064 2062.93 261.189 Q2062.93 259.453 2061.75 258.527 Q2060.59 257.601 2056.63 256.744 L2055.15 256.397 Q2051.19 255.564 2049.43 253.851 Q2047.67 252.115 2047.67 249.106 Q2047.67 245.448 2050.27 243.458 Q2052.86 241.467 2057.63 241.467 Q2059.99 241.467 2062.07 241.814 Q2064.16 242.161 2065.92 242.856 Z" fill="#000000" fill-rule="evenodd" fill-opacity="1" /><path clip-path="url(#clip270)" d="M2078.3 234.731 L2078.3 242.092 L2087.07 242.092 L2087.07 245.402 L2078.3 245.402 L2078.3 259.476 Q2078.3 262.647 2079.16 263.55 Q2080.04 264.453 2082.7 264.453 L2087.07 264.453 L2087.07 268.018 L2082.7 268.018 Q2077.77 268.018 2075.89 266.189 Q2074.02 264.337 2074.02 259.476 L2074.02 245.402 L2070.89 245.402 L2070.89 242.092 L2074.02 242.092 L2074.02 234.731 L2078.3 234.731 Z" fill="#000000" fill-rule="evenodd" fill-opacity="1" /><path clip-path="url(#clip270)" d="M2092.67 242.092 L2096.93 242.092 L2096.93 268.018 L2092.67 268.018 L2092.67 242.092 M2092.67 231.999 L2096.93 231.999 L2096.93 237.393 L2092.67 237.393 L2092.67 231.999 Z" fill="#000000" fill-rule="evenodd" fill-opacity="1" /><path clip-path="url(#clip270)" d="M2126.03 247.069 Q2127.63 244.198 2129.85 242.833 Q2132.07 241.467 2135.08 241.467 Q2139.13 241.467 2141.33 244.314 Q2143.53 247.138 2143.53 252.369 L2143.53 268.018 L2139.25 268.018 L2139.25 252.508 Q2139.25 248.782 2137.93 246.976 Q2136.61 245.17 2133.9 245.17 Q2130.59 245.17 2128.67 247.37 Q2126.75 249.569 2126.75 253.365 L2126.75 268.018 L2122.47 268.018 L2122.47 252.508 Q2122.47 248.758 2121.15 246.976 Q2119.83 245.17 2117.07 245.17 Q2113.81 245.17 2111.89 247.393 Q2109.97 249.592 2109.97 253.365 L2109.97 268.018 L2105.68 268.018 L2105.68 242.092 L2109.97 242.092 L2109.97 246.12 Q2111.42 243.735 2113.46 242.601 Q2115.5 241.467 2118.3 241.467 Q2121.12 241.467 2123.09 242.902 Q2125.08 244.337 2126.03 247.069 Z" fill="#000000" fill-rule="evenodd" fill-opacity="1" /><path clip-path="url(#clip270)" d="M2163.81 254.985 Q2158.65 254.985 2156.66 256.166 Q2154.66 257.346 2154.66 260.194 Q2154.66 262.462 2156.15 263.805 Q2157.65 265.124 2160.22 265.124 Q2163.76 265.124 2165.89 262.624 Q2168.04 260.101 2168.04 255.934 L2168.04 254.985 L2163.81 254.985 M2172.3 253.226 L2172.3 268.018 L2168.04 268.018 L2168.04 264.082 Q2166.59 266.443 2164.41 267.578 Q2162.23 268.689 2159.09 268.689 Q2155.1 268.689 2152.74 266.467 Q2150.41 264.221 2150.41 260.471 Q2150.41 256.096 2153.32 253.874 Q2156.26 251.652 2162.07 251.652 L2168.04 251.652 L2168.04 251.235 Q2168.04 248.295 2166.1 246.698 Q2164.18 245.078 2160.68 245.078 Q2158.46 245.078 2156.35 245.61 Q2154.25 246.143 2152.3 247.207 L2152.3 243.272 Q2154.64 242.37 2156.84 241.93 Q2159.04 241.467 2161.12 241.467 Q2166.75 241.467 2169.53 244.383 Q2172.3 247.3 2172.3 253.226 Z" fill="#000000" fill-rule="evenodd" fill-opacity="1" /><path clip-path="url(#clip270)" d="M2185.29 234.731 L2185.29 242.092 L2194.06 242.092 L2194.06 245.402 L2185.29 245.402 L2185.29 259.476 Q2185.29 262.647 2186.15 263.55 Q2187.03 264.453 2189.69 264.453 L2194.06 264.453 L2194.06 268.018 L2189.69 268.018 Q2184.76 268.018 2182.88 266.189 Q2181.01 264.337 2181.01 259.476 L2181.01 245.402 L2177.88 245.402 L2177.88 242.092 L2181.01 242.092 L2181.01 234.731 L2185.29 234.731 Z" fill="#000000" fill-rule="evenodd" fill-opacity="1" /><path clip-path="url(#clip270)" d="M2221.84 253.99 L2221.84 256.073 L2202.26 256.073 Q2202.53 260.471 2204.9 262.786 Q2207.28 265.078 2211.52 265.078 Q2213.97 265.078 2216.26 264.476 Q2218.58 263.874 2220.84 262.67 L2220.84 266.698 Q2218.55 267.67 2216.15 268.18 Q2213.74 268.689 2211.26 268.689 Q2205.06 268.689 2201.42 265.078 Q2197.81 261.467 2197.81 255.309 Q2197.81 248.944 2201.24 245.217 Q2204.69 241.467 2210.52 241.467 Q2215.75 241.467 2218.78 244.846 Q2221.84 248.203 2221.84 253.99 M2217.58 252.74 Q2217.53 249.245 2215.61 247.161 Q2213.72 245.078 2210.57 245.078 Q2207 245.078 2204.85 247.092 Q2202.72 249.106 2202.4 252.763 L2217.58 252.74 Z" fill="#000000" fill-rule="evenodd" fill-opacity="1" /></svg>
